<?xml version="1.0" standalone="no"?>
<!DOCTYPE svg PUBLIC "-//W3C//DTD SVG 1.1//EN" "http://www.w3.org/Graphics/SVG/1.1/DTD/svg11.dtd" >
<svg xmlns="http://www.w3.org/2000/svg" xmlns:xlink="http://www.w3.org/1999/xlink" version="1.1">
<metadata>
Created by FontForge 20200511 at Sun Jun 28 17:42:30 2026
 By convertio
</metadata>
<defs>
<font id="WmFont-Regular" horiz-adv-x="250" >
  <font-face 
    font-family="Wm Font"
    font-weight="400"
    font-stretch="normal"
    units-per-em="1000"
    panose-1="2 0 5 3 0 0 0 0 0 0"
    ascent="800"
    descent="-200"
    x-height="479"
    cap-height="633"
    bbox="33 -189 912 800"
    underline-thickness="50"
    underline-position="-100"
    unicode-range="U+000D-1D54E"
  />
<missing-glyph horiz-adv-x="364" 
d="M33 0v666h265v-666h-265zM66 33h199v600h-199v-600z" />
    <glyph glyph-name=".notdef" horiz-adv-x="364" 
d="M33 0v666h265v-666h-265zM66 33h199v600h-199v-600z" />
    <glyph glyph-name=".null" 
 />
    <glyph glyph-name="nonmarkingreturn" horiz-adv-x="333" 
 />
    <glyph glyph-name="CR" unicode="&#xd;" 
 />
    <glyph glyph-name="space" unicode=" " 
 />
    <glyph glyph-name="exclam" unicode="!" horiz-adv-x="176" 
d="M72 602q11 10 18 10t17 -5q11 -5 15 -18t4 -51q0 -13 -2 -77q-8 -224 -17 -235q-6 -8 -23 -8q-16 0 -23 7q-7 6 -7 65q0 9 2 121l3 179zM63 184q13 10 27 10q15 0 25.5 -11.5t10.5 -29.5q0 -20 -14 -31q-13 -10 -26 -10q-11 0 -23 9q-13 11 -13 31q0 21 13 32z" />
    <glyph glyph-name="quotedbl" unicode="&#x201e;" horiz-adv-x="291" 
d="M66 626q11 11 22 11q14 0 25 -14q6 -6 7 -22t1 -77q0 -89 -8 -98q-7 -9 -23 -9q-15 0 -24 10t-11 98l-2 88zM174 627q6 7 20 7q20 0 28 -11q5 -8 11 -71.5t6 -102.5q0 -15 -2 -21q-8 -22 -30 -22q-12 0 -23 11q-9 10 -14 92q-3 57 -3 81q0 29 7 37z" />
    <glyph glyph-name="quotedbl" unicode="&#x22;" horiz-adv-x="291" 
d="M66 626q11 11 22 11q14 0 25 -14q6 -6 7 -22t1 -77q0 -89 -8 -98q-7 -9 -23 -9q-15 0 -24 10t-11 98l-2 88zM174 627q6 7 20 7q20 0 28 -11q5 -8 11 -71.5t6 -102.5q0 -15 -2 -21q-8 -22 -30 -22q-12 0 -23 11q-9 10 -14 92q-3 57 -3 81q0 29 7 37z" />
    <glyph glyph-name="numbersign" unicode="#" horiz-adv-x="526" 
d="M325 416q0 8 -5.5 9.5t-35.5 1.5h-5q-32 0 -38.5 -7t-15.5 -50q-2 -8 -4.5 -20t-4 -19t-2.5 -9q-1 -1 -1 -4q0 -5 20 -5q3 0 11 0.5t14 0.5l48 2l10 44q3 15 9 56zM229 601q10 7 20 7q11 0 20 -9t9 -22q0 -11 -6 -29q-7 -20 -11 -40l-3 -19l42 1l42 2l10 41q11 43 19 51
q7 9 21 9q18 0 25 -13q5 -8 5 -16q0 -13 -5 -33q-7 -28 -7 -38q0 -6 3 -7.5t12 -1.5h3q18 0 31 -11q11 -11 11 -20q0 -7 -8 -20q-9 -11 -38 -11q-31 0 -34 -5q-3 -4 -10.5 -47t-7.5 -53q0 -6 4.5 -7.5t20.5 -1.5q23 0 37.5 -10t14.5 -25q0 -10 -7 -20q-8 -9 -46 -10h-37
l-3 -31q-1 -8 -4 -63q-1 -27 -8 -37.5t-24 -10.5q-19 0 -24.5 8t-5.5 37q0 23 1 38l3 67h-91l-6 -27q-5 -27 -9 -63q-4 -34 -14 -42q-11 -8 -20 -8q-10 0 -21 11q-9 9 -9 23t9 74l4 28l-28 -4q-5 -1 -15 -1q-38 0 -38 28q0 38 60 38h3q22 0 27 7.5t16 54.5q2 9 5 20t5 17.5
t2 8.5q0 6 -33 6q-35 0 -47 11q-11 10 -11 21q0 9 7 19q5 7 13.5 9t37.5 2q44 0 48 7q9 16 23 77q5 24 17 33z" />
    <glyph glyph-name="dollar" unicode="$" horiz-adv-x="434" 
d="M286 296q-25 17 -28 17q-4 0 -4 -47q0 -44 6 -44q3 0 6 1q49 14 49 40q0 5 -1 7q-4 11 -28 26zM189 519q-1 6 -6 6t-22 -14q-41 -36 -41 -71q0 -16 7 -22t33 -11q22 -4 24 -4q5 0 9 4q2 4 2 23q0 69 -6 89zM199 654q5 6 18 6q19 0 28 -9q9 -8 9 -33v-24l26 -6
q30 -6 35 -6q14 0 23 -9.5t9 -22.5t-10 -22q-9 -7 -27 -7q-16 0 -44 7l-12 4v-145l39 -20q38 -19 54 -32.5t23 -35.5q8 -26 8 -39q0 -16 -7 -31q-10 -24 -32 -39t-64 -28l-23 -7l-6 -46q-5 -36 -12 -48t-24 -12q-28 0 -28 45v10l2 35l-21 2q-47 4 -76.5 18.5t-29.5 33.5
q0 11 11 22q10 10 18 10q6 0 29 -10q22 -11 56 -11q14 0 17 4q3 3 5 63q1 15 1 35q0 21 -8 26.5t-43 13.5q-69 16 -84 58q-5 13 -5 31q0 45 34 90.5t80 59.5q16 4 19 8.5t5 25.5q4 28 7 35z" />
    <glyph glyph-name="percent" unicode="%" horiz-adv-x="609" 
d="M178 559q-16 20 -23 20q-8 0 -15 -11q-22 -32 -22 -83q0 -79 42 -118l14 -14l11 11q11 11 11 49q-2 123 -18 146zM109 631q14 14 38 14q37 0 66 -30q23 -23 32 -57t12 -106q1 -23 1 -52q0 -33 -10 -52q-25 -51 -78 -51q-20 0 -27.5 4t-26.5 24q-60 62 -62 154
q0 99 55 152zM430 620q11 9 19 9q11 0 21.5 -9t10.5 -19q0 -13 -36 -67q-37 -56 -37 -58q0 -5 -7 -12q-4 -5 -39 -71q-68 -130 -91 -170t-57 -86q-20 -29 -28 -35q-5 -5 -16 -5q-16 0 -27 15q-7 10 -7 14q0 9 39 64q42 57 114 198q34 66 81 143t60 89zM483 351q-4 2 -12 2
q-14 0 -28 -8.5t-17 -19.5q-2 -10 -2 -21q0 -63 14 -89q9 -20 18 -20q10 0 22 26q13 28 13 77q0 50 -8 53zM407 404q16 10 36 10q14 0 23 -1q56 -2 72 -23t17 -92v-18q0 -41 -9 -63q-17 -45 -41 -69t-49 -24q-31 0 -58 36q-35 46 -37 137q0 40 14 68q13 27 32 39z" />
    <glyph glyph-name="ampersand" unicode="&#x26;" horiz-adv-x="567" 
d="M193 354q-5 0 -31 -31.5t-35 -49.5q-8 -14 -8 -42q0 -26 13.5 -36.5t54.5 -16.5q24 -3 41 -3q38 0 63 26q18 20 18 26q0 5 -55.5 66t-60.5 61zM243 580q-16 8 -22 8q-9 -1 -31.5 -12.5t-39.5 -24.5q-20 -16 -20 -23q0 -6 1 -9q3 -15 30 -44q24 -24 35 -24h5q16 4 34 25
t25 46q6 16 6 28q0 18 -23 30zM191 643q13 3 30 3q28 0 46 -7q13 -5 29 -20t23 -28q9 -17 9 -39q0 -68 -57 -130l-24 -26l23 -27q30 -34 57 -63l33 -36l15 25q33 57 62 70q21 10 40 10q35 0 35 -27q0 -13 -6 -19.5t-27 -13.5q-18 -7 -26 -15t-24 -37l-25 -43l49 -45
q49 -47 52 -55q1 -2 1 -6q0 -11 -9 -20t-20 -9q-13 0 -27.5 10t-50.5 45q-35 33 -42 33q-10 0 -29 -21q-23 -24 -43 -32.5t-53 -8.5t-79.5 10.5t-59.5 20.5q-38 30 -38 88q0 19 4 35q7 28 16 44.5t40 54.5l31 37l-34 37q-49 53 -49 95q0 8 1 11q4 23 46 55.5t81 43.5z" />
    <glyph glyph-name="quotesingle" unicode="&#x201a;" horiz-adv-x="171" 
d="M71 638q12 6 16 6q6 0 19 -13q11 -12 11 -28q0 -14 -1 -25q-1 -8 -1 -28q0 -21 2 -43q2 -16 2 -23q0 -41 -22 -47q-3 -1 -8 -1q-23 0 -30 11q-6 10 -6 104q0 30 2 50t5 26.5t11 10.5z" />
    <glyph glyph-name="quotesingle" unicode="'" horiz-adv-x="171" 
d="M71 638q12 6 16 6q6 0 19 -13q11 -12 11 -28q0 -14 -1 -25q-1 -8 -1 -28q0 -21 2 -43q2 -16 2 -23q0 -41 -22 -47q-3 -1 -8 -1q-23 0 -30 11q-6 10 -6 104q0 30 2 50t5 26.5t11 10.5z" />
    <glyph glyph-name="parenleft" unicode="(" horiz-adv-x="253" 
d="M117 606q16 17 28 17q10 0 20 -10q11 -11 11 -22q0 -9 -9 -23q-20 -28 -38 -96q-12 -46 -12 -129q0 -88 13 -152q19 -101 62 -202q4 -9 4 -15q0 -4 -6 -15q-9 -14 -23 -14q-27 0 -45 44q-70 167 -70 351q0 86 18.5 161t46.5 105z" />
    <glyph glyph-name="parenright" unicode=")" horiz-adv-x="279" 
d="M108 621q12 9 21 9q13 0 24.5 -21t28.5 -73q44 -136 44 -224t-41 -193q0 -1 -19 -50q-41 -104 -65 -118q-9 -6 -14 -6q-4 0 -15 8q-15 12 -15 24t12 33q18 31 45 103t43 135q7 25 7 58q0 72 -46 217q-21 65 -21 79q0 12 11 19z" />
    <glyph glyph-name="asterisk" unicode="*" horiz-adv-x="416" 
d="M177 626q10 13 23 13q12 0 23 -11q10 -10 10 -29q0 -15 -1 -27l-3 -47h34q35 0 47 9q9 6 18 6q16 0 26 -16q11 -14 5 -27q-6 -12 -28 -22.5t-42 -11.5q-20 0 -20 -4t19 -42q17 -35 17 -49q0 -6 -3 -12q-3 -5 -14.5 -11t-17.5 -6q-16 0 -42 56q-16 31 -21 31t-28 -43
q-15 -28 -21.5 -34.5t-17.5 -8.5h-4q-13 0 -22.5 8t-9.5 19q0 10 20 48q17 31 17 39q0 4 -19 4q-16 0 -35 7q-32 12 -32 35q0 12 9.5 19.5t26.5 7.5q4 0 16 -2q28 -5 40 -5h19v46q0 45 11 60z" />
    <glyph glyph-name="plus" unicode="+" horiz-adv-x="409" 
d="M184 533q13 8 22 8q12 0 21 -9q8 -9 12 -67l3 -56l43 2q10 1 25 1q21 0 32 -11q12 -12 12 -24t-11 -21q-11 -10 -56 -11l-46 -2l-3 -19q-3 -16 -3 -50q0 -26 -9.5 -43t-23.5 -17q-10 0 -20 9q-9 8 -9 62v54h-49q-50 0 -60 10t-10 21t7 19q7 10 59 11l53 2v61q0 45 1.5 55
t9.5 15z" />
    <glyph glyph-name="comma" unicode="," horiz-adv-x="209" 
d="M77 196q13 13 31 13q16 0 28 -12q20 -22 20 -73q0 -9 -1 -13q-5 -30 -28.5 -61.5t-40.5 -31.5q-11 0 -21.5 9t-10.5 19q0 12 18 39t18 40q0 11 -13 24t-13 24q0 10 13 23z" />
    <glyph glyph-name="hyphen" unicode="-" horiz-adv-x="328" 
d="M65 326l13 14l89 -2q65 -2 78 -3.5t20 -10.5q9 -12 9 -21q0 -10 -10 -20q-7 -8 -21 -9.5t-79 -1.5q-88 0 -94 4q-5 4 -11.5 15t-6.5 17q0 7 13 18z" />
    <glyph glyph-name="period" unicode="." horiz-adv-x="191" 
d="M65 192q13 13 27 13q18 0 32 -17q13 -14 13 -29q0 -13 -11 -25q-14 -15 -33 -15t-29 12q-11 11 -11 29t12 32z" />
    <glyph glyph-name="slash" unicode="/" horiz-adv-x="365" 
d="M261 638q9 6 18 6q12 0 21 -9t9 -24q0 -17 -4 -21q-5 -5 -24 -53t-34 -92q-17 -52 -30 -87t-29 -73t-29 -73q-32 -84 -43 -103t-28 -19q-15 0 -23.5 9t-8.5 23q0 13 7 24q12 23 21 50q13 37 18 47q34 74 80 212q56 166 79 183z" />
    <glyph glyph-name="zero" unicode="0" horiz-adv-x="477" 
d="M296 542q-19 25 -31 25q-9 0 -30 -12q-72 -38 -104 -123q-14 -37 -14 -86q0 -46 13 -72q19 -36 57 -58t82 -23h4q53 0 72 26t20 97q0 137 -69 226zM211 632q15 7 34 7q38 0 75 -32t65 -89q26 -53 32 -85t7 -110q0 -62 -1.5 -80t-9.5 -35q-19 -39 -56.5 -60.5t-87.5 -21.5
q-63 1 -123.5 42t-81.5 98q-12 31 -12 80q0 50 12 86q10 30 10 39q0 7 5 9q3 1 14 22t57.5 72t60.5 58z" />
    <glyph glyph-name="one" unicode="1" horiz-adv-x="301" 
d="M184 643q12 6 27 6q19 0 25 -8q5 -6 5 -77v-56v-39q0 -115 5 -207q4 -69 4 -99q0 -25 -8 -36q-10 -15 -24 -15q-11 0 -19 8q-7 7 -9 20t-4 62q-2 77 -5 103q-1 6 -3 135v104l-10 -13q-18 -23 -42 -45t-30 -23q-2 0 -5 -0.5t-4 -0.5q-14 0 -24 13q-8 10 -8 16q0 10 22 33
q5 6 58 69q38 45 49 50z" />
    <glyph glyph-name="two" unicode="2" horiz-adv-x="425" 
d="M59 166q0 8 5.5 15t5.5 15q0 13 43 53q63 60 93 96.5t49 75.5q26 56 26 82q0 14 -4 23q-13 31 -57 31q-48 0 -98 -36q-20 -16 -44 -16q-12 0 -18 6t-6 18q0 21 12 31q12 11 42.5 27.5t50.5 23.5q18 6 48 6q53 0 82 -13q16 -7 28 -22.5t12 -29.5q0 -7 10 -27
q10 -21 10 -47q0 -19 -7 -25q-8 -8 -8 -12q0 -8 -26.5 -56.5t-40.5 -65.5q-17 -22 -63 -70l-44 -46l94 3q20 1 51 1q42 0 53.5 -5.5t11.5 -23.5t-10 -25.5t-40.5 -11t-99.5 -3.5h-34q-47 0 -69.5 1t-37 4.5t-17.5 8t-3 14.5z" />
    <glyph glyph-name="three" unicode="3" horiz-adv-x="449" 
d="M135 629q19 3 49 3q65 0 89 -11q41 -19 65 -51.5t24 -68.5v-10q-4 -30 -19 -64l-17 -36l18 -16q18 -16 35 -48q15 -32 15 -56q0 -44 -54 -92q-34 -32 -40 -32q-9 0 -79 -34q-14 -7 -77 -7q-43 0 -54.5 1.5t-19.5 9.5q-12 10 -12 25q0 18 14 23t65 5q47 0 59.5 2.5
t40.5 17.5q40 19 42 19q4 0 27 23q22 22 22 44q0 20 -21 47q-7 10 -20 11.5t-80 1.5q-64 1 -77.5 3t-20.5 10q-9 12 -9 21q0 10 12 23q8 9 16 11t32 3q92 1 101 9q8 6 24 39.5t16 43.5q0 21 -21.5 41.5t-49.5 25.5q-8 2 -30 2q-66 0 -98 -15q-10 -5 -20 -5q-14 0 -24 21
q-7 14 3 28q15 21 74 32z" />
    <glyph glyph-name="four" unicode="4" horiz-adv-x="495" 
d="M293 449q-4 59 -8 59q-5 0 -35 -40t-48 -71q-9 -17 -39 -62q-23 -35 -23 -36t11 -1q36 0 95 6.5t59 14.5q0 12 -3 36q-5 37 -9 94zM298 633q12 5 16 5q7 0 17 -11q7 -7 10 -20.5t6 -55.5q7 -81 8 -88q13 -113 13 -141q0 -4 24 -4t36 -13q12 -12 12 -21q0 -7 -7 -17
q-7 -11 -26 -11q-25 0 -29 -8t-4 -53q0 -44 -6.5 -59t-24.5 -15q-20 0 -26 13.5t-6 58.5v54l-45 -3q-135 -11 -177 -11q-16 0 -22 2q-13 7 -13 23q0 28 37 78q20 26 63 94.5t61 92.5q58 79 65 91q7 13 18 19z" />
    <glyph glyph-name="five" unicode="5" horiz-adv-x="412" 
d="M139 613q23 1 49 2t40 1.5t23 0.5q26 0 37 -10q12 -11 12 -20q0 -10 -13 -23q-9 -9 -22 -11t-71 -2h-81l1 -61v-62l47 -3q47 -3 76.5 -13.5t58.5 -37.5q26 -23 43.5 -52t17.5 -49q0 -12 -11.5 -46t-20.5 -49q-6 -10 -30 -25.5t-28 -19.5q-14 -12 -26 -12t-17 -5
q-6 -6 -44 -6q-62 0 -85 10t-31 18.5t-8 22.5q0 18 14 26q9 6 14 6t17 -6q25 -12 54 -12q41 0 86 22q29 14 38 35q10 23 10 37q0 28 -42 63q-25 22 -60 28q-32 4 -58 4h-11h-16q-23 0 -32 5.5t-14 20.5q-5 17 -5 102q0 84 9 101l9 18z" />
    <glyph glyph-name="six" unicode="6" horiz-adv-x="416" 
d="M256 362q-24 13 -36 13q-17 0 -48 -23q-34 -25 -43 -35t-9 -23q0 -8 1 -14q4 -35 21.5 -66t41.5 -44q6 -3 19 -3q28 0 64 9q31 7 31 96q-1 44 -8 59.5t-34 30.5zM193 622q25 11 44 11q18 0 31 -1q41 -2 55 -9t14 -25q0 -30 -40 -30q-12 0 -19 1q-8 1 -23 1
q-24 0 -39.5 -8t-35.5 -30q-23 -26 -42 -67t-19 -65q0 -6 1 -6q3 -1 16 10q39 33 84 33q24 0 62 -18.5t52 -35.5q28 -37 28 -112q0 -92 -38 -130q-21 -21 -32.5 -26t-47.5 -8q-30 -2 -40 -2q-46 0 -62 17q-8 9 -28 27q-35 33 -52 98q-10 39 -10 71q0 25 1 42q3 69 14 100
q19 57 53.5 100.5t72.5 61.5z" />
    <glyph glyph-name="seven" unicode="7" horiz-adv-x="483" 
d="M65 610q7 9 33 9q5 0 49 -2q80 -4 163 -4q65 0 80 -1.5t22 -8.5q11 -11 11 -24t-12 -27q-10 -12 -24 -45q-13 -31 -15 -33q-3 -3 -14.5 -34.5t-11.5 -37.5t31 -6q52 0 52 -30q0 -17 -12 -23.5t-48 -8.5l-46 -3l-16 -49l-39 -117q-17 -51 -27 -68t-25 -17q-10 0 -21 11
q-8 8 -8 19q0 14 15 56q10 29 27.5 89t18.5 67h-4q-5 0 -35 -2q-7 -1 -19 -1q-46 0 -46 30q0 18 13.5 24.5t59.5 11.5q51 5 57 8q5 5 15 40q16 54 31 84q13 24 9 28q-2 2 -124 5.5t-136 13.5q-13 7 -13 24q0 11 9 22z" />
    <glyph glyph-name="eight" unicode="8" horiz-adv-x="427" 
d="M248 362q-53 7 -59 7q-4 0 -7 -0.5t-5.5 -1.5t-4.5 -1.5t-4.5 -3l-4 -4l-5.5 -5.5l-6 -6q-20 -20 -27 -34.5t-7 -36.5q0 -29 33.5 -55.5t69.5 -26.5q20 0 42.5 9.5t35.5 23.5q10 11 10 24q0 10 -3 34q-5 41 -17.5 57t-40.5 20zM283 579q-11 8 -24 8q-12 0 -40 -10
q-73 -28 -73 -45q0 -11 9 -37t18 -40q7 -11 21 -11q3 0 29 2q30 2 38.5 5t19.5 14q34 36 34 55q0 12 -11 32t-21 27zM216 642q22 6 42 6q68 0 102 -67q15 -30 15 -60q0 -47 -37 -88l-23 -25l15 -15q34 -33 40 -118q1 -11 1 -30q0 -28 -8 -42t-31 -31q-33 -24 -55.5 -32.5
t-53.5 -8.5q-38 0 -69 15q-48 23 -74 58t-26 76q0 54 45 103l24 27l-16 32q-24 48 -24 88t24 59q14 12 49.5 29t59.5 24z" />
    <glyph glyph-name="nine" unicode="9" horiz-adv-x="372" 
d="M214 542q-14 14 -19 14q-6 0 -28.5 -19.5t-30.5 -31.5q-21 -27 -21 -68q0 -8 1 -11q6 -34 55 -39q2 0 6.5 -0.5t6.5 -0.5q32 0 58 27q10 11 10 20q0 1 -4 29q-11 60 -34 80zM162 611q16 12 36 12q15 0 34 -4q23 -4 40 -25q18 -21 25 -51.5t12 -100.5q5 -73 8 -88
q1 -2 1 -10q0 -15 -3 -36q-4 -32 -17.5 -54.5t-43.5 -48.5q-44 -37 -124 -60q-21 -7 -30 -7q-7 0 -16 6q-14 9 -14 25q0 19 16 25q8 3 28 13q14 8 23 8q21 0 58 26t50 51q10 20 10 39q0 8 -3 8q-5 0 -25 -11q-19 -9 -35 -9q-12 0 -19 1q-70 7 -107 60q-13 19 -13 62
q0 45 15 73q10 20 37 51.5t34 31.5q4 0 23 13z" />
    <glyph glyph-name="colon" unicode=":" horiz-adv-x="192" 
d="M66 491q13 13 26 13h5q19 -2 30 -16.5t11 -38.5t-16 -36q-15 -12 -26 -12q-10 0 -21 9q-22 18 -22 46q0 21 13 35zM63 196q11 14 30 14q18 0 31 -13q15 -16 15 -38q0 -11 -4 -18q-17 -30 -39 -30q-10 0 -21 9q-23 20 -23 45q0 17 11 31z" />
    <glyph glyph-name="semicolon" unicode=";" horiz-adv-x="246" 
d="M118 501q7 8 21 8q18 0 35.5 -13t17.5 -30q0 -22 -15.5 -38.5t-33.5 -16.5q-11 0 -19 7q-7 6 -13 22.5t-6 29.5q0 6 1 8q3 12 12 23zM107 198q15 11 20 11q10 0 22 -13t16 -27q8 -30 8 -50q0 -10 -2 -11q-5 -3 -5 -12q0 -8 -20.5 -38.5t-32.5 -40.5t-31 -10q-13 0 -19 6
t-6 17q0 21 16 38q15 16 27 41q8 19 8 23q0 6 -6 18q-8 18 -8 26q0 12 13 22z" />
    <glyph glyph-name="less" unicode="&#x3c;" horiz-adv-x="494" 
d="M365 558q25 14 40 14q13 0 23 -10t10 -26q0 -13 -6.5 -22t-17.5 -9q-16 0 -180 -104l-56 -36l56 -27q48 -23 106 -49q50 -23 57 -28.5t9 -21.5q0 -2 0.5 -4.5t0.5 -3.5q0 -11 -12 -20q-8 -5 -14 -5q-13 0 -141 60q-54 26 -58 26q-5 0 -59 27.5t-59 32.5q-9 9 -9 20
q0 13 11.5 23.5t28.5 10.5q35 0 141 71q66 44 129 81z" />
    <glyph glyph-name="equal" unicode="=" horiz-adv-x="465" 
d="M229 478q56 2 75 2q77 0 95 -10q12 -8 12 -29q0 -13 -7 -19q-6 -5 -126 -8q-138 -4 -157 -7q-20 -2 -27 -2q-32 0 -39 26q-4 14 10 25q11 10 43 14t121 8zM111 339q44 4 148 4q113 0 122 -4q19 -6 19 -31q0 -19 -14 -23q-8 -3 -156 -5q-33 -1 -81 -1q-40 0 -56.5 3
t-20 7.5t-3.5 17.5q0 18 8 24t34 8z" />
    <glyph glyph-name="greater" unicode="&#x3e;" horiz-adv-x="435" 
d="M85 515q10 10 20 10q26 0 101 -35q34 -16 40 -16q5 0 5 -6q0 -5 6 -5q7 0 45 -23t57 -38q20 -16 20 -25q0 -6 -1 -9q-3 -16 -13 -25t-36 -19q-54 -23 -136 -70q-30 -16 -65 -29.5t-48 -13.5h-3q-22 5 -22 31q0 7 1 10q5 21 65 38q12 4 56 29q34 21 72 39q30 14 30 17
q0 6 -65 39t-99 44t-37 23q-3 11 -3 16q0 8 10 18z" />
    <glyph glyph-name="question" unicode="?" horiz-adv-x="373" 
d="M92 630q26 9 86 9q42 0 55.5 -2t29.5 -10q40 -20 53 -67q2 -6 2 -19q0 -32 -16.5 -77.5t-29.5 -64.5q-4 -6 -28 -44q-26 -41 -36 -52t-21 -11q-13 0 -23 9t-10 21t24 49q75 114 75 165q0 18 -11 29q-14 12 -63 12q-36 0 -63 -8q-25 -7 -32 -7q-14 0 -23 17q-5 8 -5 15
q0 20 36 36zM146 204q13 5 21 5q10 0 23 -7t17 -16t4 -31q0 -24 -9 -34t-31 -10q-48 0 -48 45q0 39 23 48z" />
    <glyph glyph-name="at" unicode="@" horiz-adv-x="635" 
d="M382 416q-6 10 -13 10t-31 -12q-69 -37 -95 -84q-6 -12 -6 -17q0 -6 7 -20q21 -47 62 -51q5 -1 13 -1q12 0 31 19q18 20 25 51q10 51 10 84q0 15 -3 21zM340 620q7 1 58 3h18q30 0 59 -15q29 -14 53.5 -38t34.5 -48q18 -39 18 -117q0 -26 -3 -47q-5 -30 -18 -68.5
t-26 -57.5q-21 -33 -66 -33q-23 0 -44 10l-23 11l-19 -15q-31 -25 -75 -25q-51 0 -83 32q-46 46 -46 101q0 24 11 48q16 34 59.5 68.5t93.5 54.5q28 11 42 11q25 0 48 -42q11 -21 11 -48q0 -26 -1 -46q-1 -17 -1 -42q0 -34 5 -45t19 -11q13 0 22.5 16.5t22.5 59.5
q10 31 10 76q0 68 -21 98q-11 17 -36.5 32.5t-44.5 17.5h-14q-30 0 -70 -6t-57 -14q-38 -17 -78 -63t-62 -97q-17 -38 -19 -91q0 -5 -0.5 -14t-0.5 -12q0 -30 10 -57q17 -48 61.5 -76.5t98.5 -28.5q17 0 33 3q30 5 40 13q7 5 36 19q20 9 33 9q19 0 27 -21q1 -3 1 -8
q0 -23 -36 -38q-20 -9 -24 -13q-12 -10 -46.5 -19t-61.5 -9q-54 0 -95 18t-83 60q-29 29 -39 51.5t-17 71.5q-3 19 -3 39q0 135 109 252q38 41 76.5 60.5t102.5 29.5z" />
    <glyph glyph-name="A" unicode="A" horiz-adv-x="547" 
d="M356 351q0 15 -25.5 85.5t-39.5 98.5l-8 17l-12 -32q-17 -47 -63 -144q-11 -23 -4 -27q8 -5 87 -5q65 0 65 7zM250 640q13 14 21 14q4 0 16 -5q26 -14 53.5 -70t69.5 -181q55 -169 75 -216q8 -21 8 -31t-8 -20q-7 -9 -20 -9q-14 0 -25 12q-7 8 -17.5 34.5t-21.5 57
t-14 37.5l-7 19h-213l-16 -34q-20 -42 -30 -74q-8 -24 -13.5 -32.5t-14.5 -11.5q-4 -2 -12 -2q-15 0 -25 16q-2 4 -2 10q0 42 110 278q58 124 68 178q4 16 18 30z" />
    <glyph glyph-name="B" unicode="B" horiz-adv-x="488" 
d="M217 354q-6 1 -60 7l-36 3v-36q0 -42 -3 -81q-2 -26 -2 -30q0 -17 6 -19q2 -1 11 -1q26 0 80 7.5t78 14.5q35 11 58.5 32t23.5 39q0 10 -9 18q-12 9 -44 21t-54 16q-17 3 -49 9zM251 559q-38 12 -99 12q-13 0 -21 -2q-6 -2 -8 -14.5t-2 -55.5q0 -65 6 -69q4 -2 51 -10
q24 -3 39 -3q17 0 47 6q44 9 75 27t31 34q0 8 -11 19q-13 13 -48.5 31t-59.5 25zM86 613q16 12 27 14t58 2q62 0 99 -11q62 -19 108 -53.5t53 -66.5q2 -12 2 -17q0 -42 -57 -81l-23 -16l18 -7q31 -13 48.5 -36t17.5 -49q0 -16 -13 -43.5t-27 -42.5q-26 -27 -92 -47t-148 -25
q-32 -2 -35 -2q-16 0 -24 8q-11 11 -25 16q-13 6 -17.5 14t-4.5 29q0 23 6 79q7 64 7 121q0 17 -2 73q-2 70 -2 90q0 23 1 25q3 8 25 26z" />
    <glyph glyph-name="C" unicode="C" horiz-adv-x="484" 
d="M260 630q36 9 54 9q17 0 56 -6q44 -7 54 -20q7 -8 7 -19q0 -12 -10 -20.5t-25 -8.5q-4 0 -14 2q-17 5 -62 5q-41 0 -70 -13q-63 -30 -110 -122q-14 -27 -17 -40t-3 -43q0 -45 9 -62q28 -53 83.5 -85.5t115.5 -32.5q14 0 21 1q20 2 22 2q14 0 21 -7q10 -10 10 -23t-10 -25
q-7 -7 -17 -9t-43 -2q-70 0 -142 36q-63 32 -99.5 88t-36.5 120q0 38 13 73q29 80 80 133.5t113 68.5z" />
    <glyph glyph-name="D" unicode="D" horiz-adv-x="492" 
d="M288 535q-38 15 -99 19q-12 1 -33 1q-30 0 -34 -3q-6 -3 -6 -23q0 -4 2 -46q4 -70 4 -173v-108l82 1q70 2 91.5 9t42.5 35q30 42 39 89q3 21 3 42q0 42 -11.5 79.5t-29.5 52.5q-13 11 -51 25zM61 606q16 11 84 11q48 0 99 -6q39 -5 55 -9.5t43 -19.5q35 -19 54 -41
t33 -60q12 -32 12 -82v-21q0 -72 -12 -97q-11 -24 -11 -28q0 -7 -27 -41t-41 -43q-45 -32 -110 -32q-13 0 -20 1q-4 0 -14.5 0.5t-16.5 0.5q-33 0 -56 -3t-33 -3q-13 0 -24 8l-13 10l-3 160q-3 138 -8 223q-2 44 -2 46q0 18 11 26z" />
    <glyph glyph-name="E" unicode="E" horiz-adv-x="380" 
d="M199 623q62 5 78 5q26 0 33 -7q8 -8 8 -24q0 -13 -6 -19q-10 -9 -59.5 -13.5t-93 -7.5t-43.5 -8q0 -4 6 -26q5 -18 5 -64v-44l35 4q8 1 22.5 2t34.5 2t30 2q15 1 35 1t29 -9q10 -10 10 -24q0 -10 -6 -19q-4 -5 -36.5 -9t-72 -7t-46.5 -4l-35 -6v-167l86 3q23 1 58 1
q33 0 41 -3q16 -7 16 -24q0 -12 -8.5 -22t-22.5 -12q-3 -1 -90 -5q-95 -5 -107 -6q-16 -2 -20 -2q-14 0 -18.5 7t-4.5 27q0 21 3 60q4 68 4 137q0 185 -10 223q-4 16 -4 26q0 7 3 15q4 9 11.5 10.5t42.5 2.5q82 3 92 4z" />
    <glyph glyph-name="F" unicode="F" horiz-adv-x="408" 
d="M82 626q16 8 43 8q5 0 49 -2q142 -7 167 -19q13 -7 13 -24q0 -11 -6 -20q-1 -1 -2.5 -4t-2 -3.5t-3 -2t-6.5 -2t-10 -0.5q-4 0 -136 10q-54 4 -62 4q-7 0 -8 -1t-1 -11q0 -29 5 -93.5t8 -68.5q2 -2 14 -2t18 1q33 4 93 4q63 0 68 -5q6 -6 6 -21q0 -18 -8 -26
q-8 -7 -87 -11q-82 -4 -86 -6q-8 -2 -8 -98q0 -77 -4 -98.5t-20 -25.5q-4 -1 -11 -1q-24 0 -27 15q-2 6 -4 149q-4 141 -8 160q-8 38 -14 109q-1 9 -1 24q0 26 7 39t24 22z" />
    <glyph glyph-name="G" unicode="G" horiz-adv-x="547" 
d="M335 650q44 2 61 2h14l8 -1q26 -5 26 -29q-1 -34 -66 -34q-100 0 -152 -20q-34 -13 -47 -25t-27 -43q-33 -74 -33 -117q0 -31 15 -68q25 -64 56.5 -98.5t81.5 -51.5q26 -9 46 -9q26 0 59 16q29 14 39 23t10 23q0 8 -3 21q-5 27 -5 56v27l-52 -2q-10 -1 -27 -1
q-28 0 -39.5 6.5t-11.5 22.5q0 20 11 26t51 8q51 4 80 11q15 4 28 4q35 0 35 -29q0 -8 -3 -19q-4 -11 -4 -55q0 -64 7 -93q1 -3 1 -9q0 -10 -24 -33q-52 -51 -122 -64q-24 -4 -30 -4q-13 0 -37 6q-36 9 -54 18q-20 9 -48.5 28.5t-38.5 30.5q-33 37 -68 123q-18 41 -18 70v9
q1 52 28 123t55 93q65 51 198 58z" />
    <glyph glyph-name="H" unicode="H" horiz-adv-x="490" 
d="M393 627q12 6 16 6t17 -10l14 -12v-242q-2 -248 -2 -249q-5 -22 -30 -22q-8 0 -18 5l-13 8v256l-120 -1q-122 -2 -126 -6q-1 -1 -1 -10q0 -20 3 -48q3 -30 8 -121q2 -46 2 -48q0 -20 -9 -29q-10 -9 -24 -9q-13 0 -23 8t-13 108q-4 113 -10 167q-7 69 -11 143q-2 42 -2 50
q0 28 6 35t25 7t24 -10.5t9 -58.5q1 -7 3 -39t3 -43l3 -36l120 1h50q71 0 77 -2h1q5 0 6 96l2 100z" />
    <glyph glyph-name="I" unicode="I" horiz-adv-x="340" 
d="M109 631q6 0 19.5 0.5t34 1t34.5 0.5h17q42 0 54 -5.5t12 -24.5q0 -15 -10 -22t-36 -9l-29 -3v-42q0 -29 2 -191l1 -147h28q23 0 36.5 -8.5t13.5 -21.5q0 -11 -9 -21q-6 -7 -23.5 -9.5t-80.5 -4.5q-62 -2 -66 -2q-29 0 -36 11q-9 12 -9 22q0 26 49 32l28 3l4 60
q1 16 1 80q0 73 -1 108l-4 129h-35q-24 0 -31 2t-13 11q-8 13 -2 28q5 13 14 17t37 6z" />
    <glyph glyph-name="J" unicode="J" horiz-adv-x="374" 
d="M272 594q10 9 21 9t21 -10q6 -6 8 -21.5t2 -73.5v-97q-2 -159 -20 -308q-3 -26 -7 -34.5t-23 -25.5q-36 -35 -74 -35q-12 0 -27 3q-71 13 -107 90q-11 24 -11 36q0 17 18 25q7 3 14 3q18 0 35 -33q32 -63 77 -63q11 0 24 13.5t13 26.5q0 15 5 20q5 6 11 112.5t8 216.5
q1 101 2.5 120t9.5 26z" />
    <glyph glyph-name="K" unicode="K" horiz-adv-x="450" 
d="M310 623q29 26 38 26q6 0 16 -8q12 -12 12 -26v-7q-2 -10 -102 -111q-101 -105 -101 -106q3 -5 28 -24q26 -19 111 -104q58 -58 71 -73.5t13 -28.5q0 -14 -9 -24.5t-22 -10.5q-9 0 -57 52q-69 77 -166 155l-14 11l-4 -105q-3 -78 -5 -92.5t-12 -23.5q-11 -11 -19 -11
q-6 0 -18 9l-13 10l2 135v40q0 119 -5 192q-4 48 -4 94q0 19 1 23q6 29 30 29q7 0 14 -3q10 -4 12 -12t5 -60q3 -55 8 -100l4 -33l78 80q67 69 108 107z" />
    <glyph glyph-name="L" unicode="L" horiz-adv-x="385" 
d="M63 615q5 4 16 4q19 0 26 -9q8 -10 14 -155q5 -133 5 -196v-52l91 1l90 2l14 -14q14 -14 10 -27q-3 -14 -10.5 -19.5t-25.5 -5.5q-13 0 -21 1q-7 1 -29 1q-49 0 -88 -4l-79 -6l-10 12q-8 8 -8 32q0 4 2 50q1 11 1 40q0 75 -6 168q-5 92 -5 119q0 49 13 58z" />
    <glyph glyph-name="M" unicode="M" horiz-adv-x="610" 
d="M67 627q16 16 26 16q11 0 24 -15q12 -13 46 -80t62 -134q1 -3 4.5 -10.5t8.5 -20t9 -21.5q23 -52 33 -78q15 -37 18 -40q1 -1 4 2.5t6 10.5q95 211 101 225q32 82 49.5 109.5t37.5 27.5q12 0 27 -6q18 -8 23 -16q6 -9 11 -74q3 -33 3 -61q0 -46 -14 -214q-5 -57 -5 -98
q0 -34 -9 -45q-8 -9 -20 -9q-13 0 -23 10t-10 31q0 4 2 48q1 25 5 74.5t6 91t2 77.5v27q-1 54 -4 54q-2 0 -5 -7q-37 -76 -37 -83q0 -4 -29 -64q-70 -144 -70 -170q0 -12 -13.5 -38.5t-22.5 -30.5q-6 -3 -12 -3q-13 0 -24 12.5t-16 33.5q-11 43 -106 259l-36 82l-4 -141
q-2 -90 -2 -110q0 -51 3 -72q3 -24 3 -33q0 -10 -6 -18q-7 -9 -21 -9q-17 0 -30 16q-8 11 -9 39.5t-2 206.5l-1 231z" />
    <glyph glyph-name="N" unicode="N" horiz-adv-x="515" 
d="M66 627q10 7 22 7q45 0 160 -173q52 -78 87 -139q5 -9 14.5 -24t16 -25.5t10.5 -16.5l16 -23l4 15q4 14 4 140v50v96q0 81 8 90q9 10 19 10t19 -9q19 -17 19 -197q0 -123 -10 -242q-4 -40 -7.5 -50t-17.5 -17q-13 -7 -18 -7q-4 0 -13 6q-21 13 -123 181
q-108 175 -139 211l-16 18l-1 -114q0 -120 -5 -197q-6 -82 -17 -95q-9 -10 -19 -10q-11 0 -22 14q-7 10 -7 35q0 21 3 87q4 98 4 199v41q0 16 -0.5 38.5t-0.5 30.5q0 63 10 70z" />
    <glyph glyph-name="O" unicode="O" horiz-adv-x="542" 
d="M374 542q-21 12 -69 12q-19 0 -37 -3q-38 -7 -81.5 -39.5t-59.5 -66.5q-10 -22 -10 -51q0 -30 11 -79q11 -50 36.5 -99t50.5 -68q18 -14 49 -14q36 0 73 19t52 48q16 30 27.5 97t11.5 122q0 22 -1 31q-7 64 -53 91zM248 616q4 2 29 2q5 0 17 -0.5t19 -0.5q59 -2 83 -15
q28 -14 52 -42.5t34 -59.5q9 -27 9 -59q0 -27 -1 -47q-7 -159 -47 -229q-24 -42 -75.5 -69t-103.5 -27q-35 0 -60 13q-36 19 -62 52q-30 37 -62 114q-24 61 -26 161q0 33 2.5 43.5t13.5 26.5q64 97 178 137z" />
    <glyph glyph-name="P" unicode="P" horiz-adv-x="417" 
d="M235 555q-42 17 -104 17q-16 0 -16 -3v-17q0 -132 2 -134h2q2 0 68 6q44 4 59 8t27 13q28 23 28 57q0 7 -1 10q-4 17 -65 43zM115 635q22 2 31 2q58 0 127 -30q63 -27 81 -59q10 -17 10 -35q0 -13 -1 -21q-6 -86 -86 -117q-18 -7 -67 -13.5t-87 -7.5q-6 0 -9 -111
q-3 -95 -8 -113.5t-27 -18.5q-19 0 -25 6q-4 8 -4 171v75q1 185 4 218t20 43q1 1 2 1q14 7 39 10z" />
    <glyph glyph-name="Q" unicode="Q" horiz-adv-x="577" 
d="M443 483q-15 20 -73 45.5t-106 25.5q-19 0 -31 -4q-46 -12 -91 -100q-18 -34 -21 -47t-3 -51q0 -53 7 -74q7 -22 25 -47.5t36 -37.5q17 -12 53.5 -20.5t65.5 -8.5q10 0 15 1q23 4 23 10q0 3 -6 9q-19 19 -19 36q0 6 13 18.5t20 12.5t31 -24q23 -23 28 -23q13 0 34 66
q11 34 11 115q0 57 -2 71.5t-10 26.5zM235 617q15 4 36 4q45 0 81 -16q40 -16 49 -21q74 -32 96.5 -68.5t22.5 -128.5q0 -136 -55 -220l-9 -14l34 -36q35 -35 35 -52q0 -11 -13 -21q-15 -11 -21 -11q-7 0 -49 44l-42 43l-21 -8q-20 -7 -85 -7q-38 0 -62 3q-40 6 -79 31.5
t-61 60.5q-19 31 -27 59t-10 76q-1 15 -1 36q0 29 10 60q27 81 81 135q36 36 90 51z" />
    <glyph glyph-name="R" unicode="R" horiz-adv-x="456" 
d="M317 488q-21 27 -72 53t-97 26h-33l2 -89q2 -88 4 -101q5 -23 62 -23q36 0 70.5 10.5t47.5 27.5q13 16 20 49q4 19 4 28q0 10 -8 19zM73 627q10 5 45 5q56 0 93 -10q77 -21 127 -63t50 -85q0 -56 -24.5 -100t-63.5 -61q-16 -7 -16 -10q0 -4 59 -63q60 -60 60 -72
q0 -11 -11 -23.5t-20 -12.5q-8 0 -83 73q-71 69 -88 79q-11 6 -46 10l-32 3l2 -17q7 -43 7 -66q0 -8 -2 -28q-6 -54 -31 -54q-9 0 -20 8q-7 5 -9 19t-4 67q-1 24 -5 91.5t-5 93.5q-6 109 -6 151q0 37 4.5 47.5t18.5 17.5z" />
    <glyph glyph-name="S" unicode="S" horiz-adv-x="414" 
d="M186 642q25 5 55 5q47 0 65 -9q16 -8 25 -20l10 -15l-11 -14q-10 -16 -31 -16q-9 0 -13 4q-5 5 -39 5q-45 0 -60 -7q-27 -11 -58 -63l-13 -22l13 -21q15 -24 69 -58t92 -43q28 -7 49 -34t21 -55t-19 -56.5t-46 -42.5q-42 -21 -70 -27.5t-76 -7.5h-27q-37 0 -47 9t-10 22
q0 11 7 21q5 7 14.5 8t48.5 2q57 0 92 14q37 14 51 26.5t14 29.5v6q0 9 -4 13t-21 11q-26 11 -30 11q-14 0 -90 49q-43 28 -68 61t-25 62q0 24 27 67t58 67q14 11 47 18z" />
    <glyph glyph-name="T" unicode="T" horiz-adv-x="523" 
d="M106 620q45 3 195 3q148 0 153 -3t12 -16q6 -13 -2 -25t-23 -14.5t-76 -4.5l-67 -1l-4 -166q-3 -146 -6 -186.5t-12 -50.5q-7 -8 -21 -8q-16 0 -25 10q-6 7 -6 26q0 25 4 81q4 88 4 164v32l-2 98h-79q-54 0 -68 1.5t-19 8.5q-8 11 -8 21q0 27 50 30z" />
    <glyph glyph-name="U" unicode="U" horiz-adv-x="489" 
d="M362 634q10 10 20 10q12 0 25 -12l14 -12l2 -74q2 -92 9 -142q6 -46 6 -76q0 -42 -13 -74q-14 -37 -60.5 -78t-79.5 -47q-3 -1 -13 -1q-16 0 -50 4q-54 8 -88 37q-19 16 -39 50.5t-25 60.5q-19 93 -19 236q0 67 1.5 83.5t9.5 26.5q11 14 27 14q12 0 21 -10q8 -10 8 -26
q0 -4 -2 -30q-1 -13 -1 -47q0 -64 5.5 -137t12.5 -97q29 -92 106 -101q16 -2 19 -2q12 0 30 8q18 9 41 32.5t33 42.5t10 72q0 46 -7 96q-6 44 -10 120q-2 38 -2 42q0 22 9 31z" />
    <glyph glyph-name="V" unicode="V" horiz-adv-x="517" 
d="M70 628q12 4 16 4q14 0 25 -18t32 -72q14 -37 32 -75q35 -77 56 -131q19 -50 22 -61q3 -16 8 -16t9 19q8 33 20.5 69t23 61t29.5 67.5t29 66.5q22 53 35 73t27 20q8 0 19 -6q10 -7 10 -25q0 -17 -8 -31q-18 -35 -46.5 -103t-33.5 -80q-11 -24 -11 -28t-7 -20
q-11 -24 -33.5 -114.5t-22.5 -108.5q0 -8 -12.5 -18.5t-21.5 -10.5q-16 0 -32 23.5t-16 47.5q0 10 -19 70t-28 79q-5 10 -20.5 50.5t-19.5 48.5q-26 57 -37 85q-14 36 -27 66q-13 29 -13 45q0 17 15 23z" />
    <glyph glyph-name="W" unicode="W" horiz-adv-x="749" 
d="M645 617q7 7 18 7q20 0 28 -17q4 -10 4 -12q0 -10 -57 -155q-70 -175 -77 -282q-2 -30 -6 -38t-17 -8h-7q-13 2 -18.5 5t-11.5 15q-39 71 -50 112q-4 16 -43.5 114t-47.5 112q-10 15 -12 8l-13 -43q-4 -10 -10.5 -31t-8.5 -26q-16 -48 -40 -143t-24 -109
q0 -13 -9.5 -21.5t-22.5 -8.5t-21 9q-9 11 -14 48q-6 41 -44 173q-14 49 -45 136q-40 117 -40 128q0 5 6 15q9 13 28 13q27 0 27 -19q0 -8 11 -37q32 -83 78 -236q10 -34 10 -41t2 -7q5 0 15 40q7 26 17.5 58.5t17.5 55.5q4 15 39 121q11 35 19 45t24 10q9 0 20 -10.5
t14 -22.5q5 -17 31 -71q22 -47 53 -124t35 -95q3 -13 8 -13t8 17q14 57 53 156q64 163 73 172z" />
    <glyph glyph-name="X" unicode="X" horiz-adv-x="471" 
d="M66 618q8 6 15 6q16 0 38 -24t59 -81l47 -70l21 28q6 7 25 32.5t28 37.5q57 76 79 76q10 0 23 -16q7 -8 7 -13t-7 -16q-18 -27 -109 -146q-28 -37 -28 -40q0 -14 70 -109q33 -45 58 -92t25 -63q0 -12 -10.5 -19.5t-20.5 -7.5q-12 0 -19 9q-11 11 -28 45q-19 36 -86 134
q-27 39 -30 39q-4 0 -47 -81.5t-45 -93.5q-2 -13 -13 -25t-21 -12q-11 0 -20.5 9.5t-9.5 20.5q0 13 17 55t34 72q17 32 17 34q0 5 25 44q22 36 22 43q0 5 -5 12q-61 95 -101 148q-22 28 -22 43q0 12 12 21z" />
    <glyph glyph-name="Y" unicode="Y" horiz-adv-x="482" 
d="M385 625q3 1 9 2t7 1h1q8 0 17 -11t9 -20q0 -12 -25 -64t-48 -88q-27 -42 -48 -85l-25 -49l-3 -87q-2 -60 -4 -75.5t-9 -20.5q-9 -6 -20 -6q-14 0 -22 8t-8 96v89l-32 62q-26 52 -61.5 110.5t-52.5 78.5q-14 17 -14 28q0 9 10 19q11 11 22 11q23 0 60 -57
q18 -27 50.5 -83.5t32.5 -60.5t11 -19l10 -15l5 13q5 12 40 70q32 53 56 104q21 45 32 49z" />
    <glyph glyph-name="Z" unicode="Z" horiz-adv-x="460" 
d="M183 204q23 0 85.5 -7.5t81.5 -7.5q23 0 32 -7t9 -25q0 -17 -7 -23t-33 -6q-20 0 -83 5q-79 7 -120 7q-5 0 -14 -0.5t-13 -0.5q-11 -1 -29 -1q-24 0 -31.5 6t-7.5 24q0 31 21 63t97 123q52 61 120 169q17 28 17 30q0 3 -111 3q-84 0 -100 1.5t-25 11.5q-12 12 -12 20
t10 21l11 14l152 -1q105 -1 130 -3t33 -9q10 -9 10 -22q0 -15 -13 -27q-11 -12 -34 -49q-66 -113 -119 -174q-103 -120 -103 -130q0 -5 46 -5z" />
    <glyph glyph-name="bracketleft" unicode="[" horiz-adv-x="283" 
d="M64 630q9 9 38 9q24 0 41 -1q46 -1 59.5 -3t18.5 -9q7 -11 7 -19q0 -13 -11.5 -21.5t-29.5 -8.5q-25 0 -43 -3l-24 -3l-3 -80q-1 -22 -1 -107q0 -97 1 -144l4 -171h38q31 0 42 -6.5t11 -24.5q0 -16 -14.5 -23t-54.5 -9q-9 -1 -26 -1q-51 0 -57 16q-3 8 -7 167
q-3 152 -3 187q0 4 2 134q2 110 12 121z" />
    <glyph glyph-name="backslash" unicode="\" horiz-adv-x="346" 
d="M55 580q0 10 11 18.5t24 8.5q12 0 19 -8q16 -16 83 -167q24 -56 61.5 -173.5t37.5 -137.5q0 -14 -18 -20q-8 -4 -16 -4q-14 0 -25 25.5t-37 112.5q-27 89 -47.5 140.5t-63.5 138.5q-29 58 -29 66z" />
    <glyph glyph-name="bracketright" unicode="]" horiz-adv-x="291" 
d="M67 603q8 7 21 8.5t61 1.5q49 0 61.5 -1t17.5 -7t7 -55t4 -234q2 -192 2 -202q0 -79 -7 -87q-6 -7 -17.5 -8t-58.5 -1q-56 0 -71.5 5t-15.5 24q0 21 9 27t43 6q44 0 48 2q6 3 6 68q0 52 -1 92q-1 48 -2 132t-1 100l-1 75l-49 1q-48 1 -58 12q-9 10 -9 20t11 21z" />
    <glyph glyph-name="asciicircum" unicode="^" horiz-adv-x="478" 
d="M220 607q8 6 21 6q12 0 22 -5t62 -113q84 -175 93 -184q5 -7 5 -14q0 -13 -9.5 -24.5t-21.5 -11.5q-14 0 -30 22.5t-44 81.5q-7 15 -20 41t-22 45t-14 29l-20 41l-21 -42q-15 -32 -41.5 -76t-39.5 -69q-20 -40 -31 -54t-24 -14q-11 0 -20.5 9t-9.5 20q0 9 26.5 62
t48.5 88q16 25 49 91q33 65 41 71z" />
    <glyph glyph-name="underscore" unicode="_" horiz-adv-x="482" 
d="M56 47l8 13l173 -2q125 -2 151 -3t33 -8q11 -11 11 -24t-4.5 -18t-25.5 -7.5t-71 -2.5q-10 0 -39 0.5t-48 0.5q-170 2 -181 7q-13 7 -13 24q0 11 6 20z" />
    <glyph glyph-name="grave" unicode="`" horiz-adv-x="248" 
d="M66 658q13 13 24 13q18 0 39 -34q15 -23 29 -39q16 -18 16 -23q0 -7 11 -16q10 -8 10 -24q0 -14 -8 -22t-20 -8q-10 0 -19 5q-11 5 -43 48.5t-41 64.5l-10 23z" />
    <glyph glyph-name="a" unicode="a" horiz-adv-x="455" 
d="M244 281q-6 26 -10 90l-3 60l-29 -35q-25 -30 -48 -68t-29 -59q-6 -22 -6 -46q0 -18 3.5 -25t15.5 -18q26 -23 51 -23q9 0 21 5q38 18 38 84q0 11 -4 35zM211 495q26 16 41 16q11 0 17 -7q7 -8 18 -11q16 -4 20.5 -25t7.5 -111q2 -80 4.5 -100.5t11.5 -38.5
q13 -27 29.5 -48.5t24.5 -23.5q14 -4 14 -24q0 -27 -21 -35q-8 -2 -12 -2q-20 0 -54 40l-20 24l-23 -23q-33 -33 -70 -33q-21 0 -37 5q-68 18 -94 66q-14 25 -14 63q0 39 13 69q21 51 67 115t77 84z" />
    <glyph glyph-name="b" unicode="b" horiz-adv-x="392" 
d="M238 420q-15 8 -59 10q-5 0 -14 0.5t-12 0.5q-20 0 -27 -3.5t-9 -12.5q-2 -8 -2 -58q0 -10 0.5 -36.5t0.5 -41.5l1 -125l31 10q64 19 103 78q15 21 18 32.5t5 43.5v17q0 66 -36 85zM56 696q8 11 24 11q19 0 26 -12q9 -12 9 -107v-97l32 4q9 1 28 1q80 0 123 -40
q12 -11 28 -44q13 -27 14 -78q0 -79 -30 -122q-16 -23 -51 -55t-53 -40q-19 -9 -63.5 -20.5t-60.5 -11.5h-4q-14 0 -18 13q-6 24 -9 261v35q-1 75 -1 174q0 119 6 128z" />
    <glyph glyph-name="c" unicode="c" horiz-adv-x="379" 
d="M182 520q21 10 70 10h17q33 0 44 -11q12 -10 12 -25q0 -18 -13 -23.5t-54 -6.5q-44 -1 -57.5 -7.5t-37.5 -40.5q-45 -64 -45 -125q0 -32 10 -63q8 -23 12 -29t17 -10q7 -3 21 -3q8 0 42 4q42 5 55 5q10 -1 19.5 -10.5t9.5 -19.5q0 -36 -106 -42q-13 -1 -30 -1
q-24 0 -45 11q-30 15 -45 45t-23 91q-1 7 -1 22q0 66 38.5 136t89.5 93z" />
    <glyph glyph-name="d" unicode="d" horiz-adv-x="400" 
d="M264 396q-12 12 -47 12q-12 0 -19 -1q-31 -4 -55 -42.5t-24 -79.5q0 -15 3 -27q6 -22 22 -43.5t34 -30.5q17 -9 48 -9h14h43v26q0 33 -5 106q-5 80 -14 89zM279 644q8 3 15 3q30 0 30 -67q0 -30 8 -150q17 -248 17 -276q0 -21 -6 -30q-6 -10 -16.5 -11.5t-62.5 -1.5
q-70 0 -97 8.5t-58 40.5q-56 56 -56 127q0 66 50 130q24 31 49.5 42.5t67.5 11.5h44l-4 70q-1 17 -1 44q0 30 4.5 42.5t15.5 16.5z" />
    <glyph glyph-name="e" unicode="e" horiz-adv-x="489" 
d="M312 422q-18 12 -62 12q-54 0 -76 -15q-12 -7 -27.5 -29t-15.5 -31q0 -16 126 -23q40 -2 47 -2q24 0 29 6t5 27q0 38 -26 55zM198 494q25 6 52 6q47 0 84.5 -18t53.5 -50q15 -30 15 -63q0 -61 -39 -86q-16 -11 -59 -11h-31q-81 0 -142 13q-17 4 -17 -5q0 -13 15.5 -38
t29.5 -36q12 -9 19.5 -11.5t29.5 -2.5h22q59 2 104 10q53 9 70 9q19 0 26 -13q5 -10 5 -15q0 -32 -108 -47q-49 -7 -98 -7q-59 0 -84 11q-43 20 -67.5 63t-24.5 96q0 56 26 104q40 74 118 91z" />
    <glyph glyph-name="f" unicode="f" horiz-adv-x="369" 
d="M194 663q18 7 49 7q22 0 31 -4q14 -5 27 -19.5t13 -23.5q0 -14 -8.5 -22t-22.5 -8q-12 0 -25 7q-10 5 -22 5q-27 0 -42 -15q-9 -8 -9 -53v-43h50q42 0 53 -4.5t11 -23.5q0 -21 -12.5 -27.5t-53.5 -6.5h-50l5 -27q4 -34 4 -133q0 -185 -7 -197q-7 -15 -26 -15
q-18 0 -27 15q-4 7 -4 48q0 6 0.5 21t0.5 25q0 11 0.5 31.5t0.5 30.5q0 104 -7 165l-3 34l-28 2q-22 2 -29.5 8.5t-7.5 22.5q0 31 40 31h22v43q0 98 77 126z" />
    <glyph glyph-name="g" unicode="g" horiz-adv-x="419" 
d="M267 433q-19 10 -33 10q-7 0 -20 -3.5t-21 -4.5q-23 -4 -34.5 -21t-28.5 -70q-10 -30 -10 -54q0 -38 41 -79q27 -27 50 -27q41 0 71 86q27 76 27 97q0 8 -3 17q-12 35 -39 49zM151 495q22 15 57 15q56 0 101 -29t56 -72q3 -12 3 -176q-1 -162 -8 -174q-10 -19 -47.5 -51
t-65.5 -45q-65 -30 -101 -30q-8 0 -12 1q-51 11 -70 48q-7 16 -7 22q0 12 13 24t26 6q12 -7 19 -19q5 -12 18 -16q4 -1 12 -1q26 0 64 18t67 45l30 29v79l-19 -17q-35 -31 -80 -31q-46 0 -88 39t-59 96q-6 20 -6 30q0 9 8 46q20 89 54 132q11 15 35 31z" />
    <glyph glyph-name="h" unicode="h" horiz-adv-x="416" 
d="M59 625q11 14 25 14q11 0 19 -7q16 -11 17 -112q2 -54 4 -60q1 -7 6 -7t26 11q40 20 78 20q51 0 83 -32q48 -48 48 -131q0 -30 -8 -68q-8 -40 -8 -76q0 -40 -11 -51q-9 -9 -19 -9t-20 7q-15 10 -15 44q0 33 8 84q8 58 8 82q0 43 -27 70q-18 18 -38 18q-16 0 -50 -16
q-1 -1 -4 -2q-35 -17 -43 -30q-10 -17 -11 -101q-1 -4 -1 -12v-13q-2 -82 -4 -100.5t-8 -25.5q-9 -10 -22 -10q-12 0 -19 8q-8 10 -11 82q-4 80 -4 123q0 31 3 59q1 6 1 29q0 45 -4 108.5t-8 79.5q-3 8 9 24z" />
    <glyph glyph-name="i" unicode="i" horiz-adv-x="175" 
d="M52 591q0 19 10 33t25 14q5 0 7 -1q18 -4 24.5 -11.5t6.5 -26.5q0 -21 -14 -35q-14 -13 -29 -13q-13 0 -21.5 11t-8.5 29zM61 497q8 8 22 8q20 0 29 -14q7 -10 7 -59q0 -7 -2 -123q-3 -144 -8.5 -170.5t-31.5 -27.5q-17 0 -22 16t-5 85q0 59 1 100q2 179 10 185z" />
    <glyph glyph-name="j" unicode="j" horiz-adv-x="342" 
d="M209 640q17 15 30 15q14 0 22.5 -12.5t8.5 -34.5q0 -21 -8.5 -33.5t-22.5 -12.5q-16 0 -31 15t-15 31q0 17 16 32zM202 483q0 13 10 22.5t22 9.5q17 0 26 -16t7 -25q-1 -2 -1 -8q0 -9 4 -35q5 -34 13 -132.5t8 -135.5q0 -144 -90 -197q-19 -12 -49 -12q-35 0 -64.5 17
t-29.5 38q0 9 9 20q7 9 22 9q13 0 21 -7q9 -7 33 -11q14 -2 16 -2q10 0 31 21q39 40 39 134q0 43 -5 81q-22 202 -22 229z" />
    <glyph glyph-name="k" unicode="k" horiz-adv-x="395" 
d="M55 644q6 11 24 11q14 0 21 -7q13 -13 18 -210l4 -116l34 46q55 73 99 123q17 19 25 24t21 5q14 0 22 -7.5t8 -19.5q0 -17 -16 -33q-14 -13 -58.5 -66t-44.5 -57q0 -6 41 -54q88 -111 88 -134q0 -11 -15 -24q-9 -6 -15 -6q-14 0 -45 43q-24 35 -58 77.5t-37 42.5t-25 -33
q-16 -25 -19 -35t-4 -46q-1 -46 -10 -55q-8 -8 -22 -8q-15 0 -24 9q-6 6 -8 42.5t-6 221.5q-3 144 -3 197q0 59 5 69z" />
    <glyph glyph-name="l" unicode="l" horiz-adv-x="176" 
d="M62 638q7 4 16 4q14 0 24 -10q22 -21 24 -355v-67q0 -98 -3.5 -123.5t-16.5 -33.5q-5 -4 -15 -4q-13 0 -21 7q-9 6 -9 87v67v34q0 136 -5 224q-6 116 -6 139v10.5t1 7.5l1.5 4.5t1.5 3t2 2l3 1.5t3 2z" />
    <glyph glyph-name="m" unicode="m" horiz-adv-x="628" 
d="M83 529q7 3 14 3q14 0 22.5 -11.5t8.5 -30.5q0 -18 3 -19q1 -1 7 4q34 29 73 29q34 0 60 -19q23 -17 27 -17q3 0 31 24q50 44 96 44q95 0 128 -124q15 -53 21 -173q3 -57 3 -80q0 -27 -6 -38q-8 -16 -26 -16q-7 0 -17 5q-14 10 -16 118q-1 49 -9 107t-18 85
q-20 54 -58 54q-16 -1 -28.5 -8t-39.5 -32l-29 -27l5 -33q2 -10 6.5 -33.5t5.5 -30.5q4 -23 8 -111q2 -48 2 -54q0 -28 -8 -36t-22 -8q-15 0 -23 8q-10 9 -10 43q0 113 -18 197q-20 92 -64 92q-8 0 -15 -3q-16 -7 -33.5 -25t-25.5 -37q-18 -39 -18 -145q0 -25 1 -37
q1 -11 1 -27q0 -22 -5 -31t-20 -14q-13 -5 -27 2q-19 10 -19 64q0 12 2 60q1 14 3.5 73.5t4.5 89.5q6 99 8 105q3 8 14 13z" />
    <glyph glyph-name="n" unicode="n" horiz-adv-x="428" 
d="M177 494q20 14 52 14q36 0 62 -16q49 -29 67 -87t19 -189q0 -61 -4 -77t-21 -18q-2 0 -5.5 -0.5t-4.5 -0.5q-18 0 -23 14.5t-5 63.5q0 161 -22 203q-10 19 -27.5 32t-33.5 13q-4 0 -10 -2q-18 -7 -46 -32t-41 -45l-17 -26v-100q0 -75 -1.5 -89t-11.5 -23q-13 -13 -23 -13
t-21 11q-9 9 -9 57q0 4 2 120q3 166 10 180q6 13 26 13q13 0 18 -3t10 -13l8 -15l22 11q22 11 30 17z" />
    <glyph glyph-name="o" unicode="o" horiz-adv-x="447" 
d="M273 465q-17 12 -45 12q-25 0 -25 -10q0 -8 -22 -28q-55 -52 -60 -123v-11q0 -27 4 -47q11 -41 47.5 -67.5t75.5 -26.5q44 0 63 33q19 32 19 93q0 56 -16 107t-41 68zM198 535q16 4 34 4q43 0 78 -23.5t52 -65.5q33 -79 33 -158q0 -68 -24.5 -118t-67.5 -65
q-21 -8 -51 -8q-42 0 -82.5 18.5t-67.5 49.5q-17 20 -30.5 51t-16.5 56q-1 7 -1 22q0 46 20 94.5t54 82.5q28 28 28 33q0 7 12.5 15t29.5 12z" />
    <glyph glyph-name="p" unicode="p" horiz-adv-x="451" 
d="M292 407q-28 14 -76 14q-17 0 -23 -2q-42 -12 -65 -36q-12 -12 -12 -42q0 -27 1 -48q2 -85 4 -95q2 -14 7 -17.5t30 -10.5q25 -5 40 -5q27 0 59 14q45 19 59 45t16 89v13q0 38 -7.5 52.5t-32.5 28.5zM60 494q11 11 24 11q12 0 20.5 -10t8.5 -25v-18l16 9q46 23 99 23
q62 0 109 -29q61 -37 61 -130q0 -36 -9 -78q-9 -46 -29.5 -72t-64.5 -48q-54 -26 -108 -26q-22 0 -50 5h-3q-6 0 -6 -20v-18v-20q0 -106 -14 -122q-7 -7 -20 -7q-16 0 -23 9q-7 7 -11 151q-6 237 -7 273q-2 48 -2 98q0 35 9 44z" />
    <glyph glyph-name="q" unicode="q" horiz-adv-x="534" 
d="M270 413q-20 22 -27.5 25.5t-28.5 3.5q-27 0 -53.5 -12t-36.5 -29q-8 -13 -8 -38q0 -5 2 -51q6 -121 33 -146q13 -12 36 -12q30 0 72 21q18 9 22.5 11.5t10.5 14.5t6 26v51v14v91zM145 492q29 13 64 13q33 0 64 -12q20 -7 29 -7q5 0 7 2q6 6 17 6q16 0 24 -9
q8 -10 12 -259q4 -245 8 -263q3 -10 5 -10q3 0 26 29q31 38 46 38q5 0 16 -7q14 -11 14 -21q0 -14 -36 -59q-69 -86 -81 -86q-8 0 -24 8q-18 8 -23.5 32.5t-10.5 122.5q-5 108 -7 110q-1 1 -34 -13q-30 -12 -70 -14h-4q-43 0 -67.5 17t-41.5 58q-10 24 -17 76t-7 99
q1 61 12 83q23 44 79 66z" />
    <glyph glyph-name="r" unicode="r" horiz-adv-x="398" 
d="M57 490q8 25 32 25q8 0 18.5 -11t10.5 -19q0 -6 9 -19q8 -11 14 -3q28 34 90 34q29 0 48 -10t40.5 -33t24.5 -37q0 -1 0.5 -3t0.5 -4q0 -28 -38 -75q-27 -32 -48 -32q-19 0 -29 25q-8 18 -8 32q0 11 16 26t28 15q7 0 9 1.5t1 5.5q-2 7 -22 18t-29 11q-19 0 -61 -42
l-24 -25l5 -53q3 -30 3 -65q0 -100 -12 -119q-7 -11 -22 -11q-14 0 -22 8q-6 5 -8 23.5t-2 81.5q-2 180 -23 223q-6 12 -6 18t4 14z" />
    <glyph glyph-name="s" unicode="s" horiz-adv-x="330" 
d="M112 495q15 9 48 9q29 0 64 -8q29 -7 39.5 -15t10.5 -23v-5q-2 -27 -26 -27q-9 0 -20 4q-14 7 -52 9h-13q-21 0 -30 -13q-11 -14 -11 -37t11 -37q13 -17 62 -42q46 -24 63 -43.5t20 -52.5q0 -3 0.5 -7t0.5 -6q0 -22 -12 -36.5t-42 -28.5q-24 -12 -37.5 -14.5t-50.5 -2.5
h-9q-44 0 -60 8.5t-16 30.5q0 16 7 22t30 6q18 0 31 -1q14 -1 32 -1q23 0 42 10q24 13 24 15q0 19 -59 47q-102 47 -102 132q0 21 9 48t21 40q9 9 25 19z" />
    <glyph glyph-name="t" unicode="t" horiz-adv-x="362" 
d="M122 590q7 8 23 8q19 0 26 -11q6 -9 6 -23q0 -15 -6 -42q0 -1 -1 -2v-2q0 -5 9 -6t50 -3q47 -2 55.5 -3.5t16.5 -12.5q7 -10 7 -15q0 -4 -5 -14q-6 -10 -14 -11.5t-55 -3.5q-63 -2 -69 -8q-7 -6 -7 -105q0 -121 9 -151q9 -27 20 -27q10 0 40 15q30 16 39 16
q12 0 19.5 -10.5t7.5 -23.5q0 -11 -6 -19q-7 -9 -30.5 -20.5t-47.5 -18.5q-13 -3 -26 -3q-28 0 -45 13q-46 35 -46 197q0 30 1 46q2 56 2 62q0 30 -8 30q-11 0 -21.5 9t-10.5 19q0 28 31 34q13 3 16 8.5t7 32.5q5 35 13 45z" />
    <glyph glyph-name="u" unicode="u" horiz-adv-x="475" 
d="M64 501q11 8 17 8q9 0 22 -12l14 -12l5 -96q7 -163 40 -188q8 -7 39 -7q39 0 53 10q15 9 24 23t24 50q15 37 16 79q0 38 4 86q4 43 16 53q12 9 21 9q11 0 24 -13l14 -13l-5 -66q-5 -60 -5 -149v-83l18 -16q16 -14 16 -26q0 -11 -11.5 -21.5t-22.5 -10.5q-13 0 -30.5 16.5
t-23.5 34.5q-7 21 -9 21t-23 -17q-17 -14 -47 -24.5t-55 -10.5q-21 0 -49.5 11.5t-40.5 24.5q-43 46 -53 239q-3 52 -3 70q0 15 2 19.5t9 10.5z" />
    <glyph glyph-name="v" unicode="v" horiz-adv-x="438" 
d="M55 434q-1 3 -1 9q0 14 8 25t21 11t23.5 -16.5t24.5 -56.5q5 -15 73 -187q7 -20 12 -20q4 0 37 82q50 125 62 151.5t24 33.5q8 5 15 5q19 0 29 -21q2 -6 2 -9q0 -9 -13 -38q-39 -91 -119 -299q-11 -29 -40 -29q-8 0 -15 4q-8 6 -85 192q-47 113 -58 163z" />
    <glyph glyph-name="w" unicode="w" horiz-adv-x="628" 
d="M527 487q12 12 20 12q7 0 18 -8q12 -8 12 -32q0 -36 -9.5 -93.5t-21.5 -91.5q-52 -157 -62 -170q-9 -9 -24 -9q-8 0 -15 3q-14 7 -63 124q-53 129 -63 129h-1q-5 -5 -10 -20q-8 -21 -43 -119q-35 -103 -59 -109q-4 -1 -10 -1q-14 0 -24 18t-30 77q-30 89 -70 192
q-18 48 -18 62q0 11 6 18q10 13 25 13q27 0 36 -34q2 -8 68 -194l13 -34l17 50q15 44 42 106.5t35 72.5q8 9 23 9q9 0 16 -3t36 -59.5t58 -122.5q25 -56 29 -56q3 0 17 41t24 78q14 49 15 124q2 16 13 27z" />
    <glyph glyph-name="x" unicode="x" horiz-adv-x="423" 
d="M76 481q10 8 16 8q21 0 56 -45q12 -16 30 -35.5t27 -32.5q7 -9 9 -9q6 0 55 58q42 52 61 52q6 0 16 -5q16 -11 16 -22q0 -16 -36 -55q-25 -25 -49 -57l-22 -30l15 -19q10 -14 71 -106q29 -43 29 -63q0 -13 -13 -22q-7 -6 -15 -6q-11 0 -26 18t-49 68l-51 78l-36 -50
q-49 -70 -61 -89q-10 -16 -32 -16q-13 0 -23 9t-10 21q0 6 60 91q59 84 59 88q0 3 -38 49t-54 63q-17 19 -17 36q0 16 12 23z" />
    <glyph glyph-name="y" unicode="y" horiz-adv-x="448" 
d="M63 483q7 12 23 12q19 0 30 -16q8 -12 32.5 -66.5t24.5 -61.5q0 -9 29 -78q8 -18 8 -19q0 -5 11.5 -30t14.5 -25q2 0 6 9q23 58 53 177q26 109 65 109q13 0 24 -11q11 -10 11 -18q0 -10 -14 -32q-14 -25 -20 -48q-4 -18 -34 -126q-19 -70 -64 -158q-18 -32 -56 -90.5
t-51 -72.5t-27 -14q-12 0 -21 9.5t-9 22.5q0 16 12 29q13 14 41 56t39 63q5 12 5 16q0 8 -12 31q-13 28 -36 87q-5 14 -22.5 56t-23.5 60q-28 71 -35 83q-12 21 -12 28t8 18z" />
    <glyph glyph-name="z" unicode="z" horiz-adv-x="424" 
d="M259 509q11 1 26 2.5t24 2.5t11 1h2q11 0 20 -7.5t9 -19.5q0 -30 -81 -138q-76 -103 -96 -152l-6 -15h90q74 0 93 -5.5t19 -25.5q0 -21 -23 -25.5t-132 -5.5h-59q-51 0 -63.5 2t-18.5 9q-9 12 -9 19q0 8 16 24q19 17 33 45q47 89 92 150q38 52 46 64l10 15l-28 -3
q-74 -8 -90 -8q-12 0 -36 4q-54 11 -54 35q0 18 9 24t41 6q21 0 34 -1h31q59 0 90 3z" />
    <glyph glyph-name="braceleft" unicode="{" horiz-adv-x="359" 
d="M219 618q10 6 35 6q18 0 24.5 -2.5t12.5 -11.5q9 -13 1 -27q-8 -13 -21 -15q-23 -3 -79 -85q-24 -36 -24 -55q0 -10 6 -24q10 -21 17 -8q3 5 14 5q17 0 26 -9t9 -22t-9 -22q-7 -7 -42 -17q-55 -14 -57 -29q0 -5 25 -5q26 0 37 -14q8 -9 8 -25q0 -21 -20 -71
q-13 -33 -13 -42q0 -5 5 -20q9 -28 22 -36.5t46 -8.5t47 -7t14 -24q0 -15 -9 -22q-12 -12 -68 -12q-21 0 -33 3q-31 8 -55.5 40.5t-29.5 71.5q-1 5 -1 14q0 20 17 74q4 11 -15 19q-20 8 -21 7q-3 -1 -15 11q-17 17 -17 37q0 32 38 58q21 13 21 23q0 4 -1 7q-7 27 -7 57
q0 22 4 33q5 16 51 79t57 69z" />
    <glyph glyph-name="bar" unicode="|" horiz-adv-x="174" 
d="M68 626q11 8 19 8q7 0 18 -7q7 -5 8.5 -31t1.5 -144q0 -183 5 -346l4 -180l-13 -8q-11 -8 -20 -8t-19 11q-8 9 -10.5 38t-6.5 157q-5 205 -5 325q0 103 3 139q4 38 15 46z" />
    <glyph glyph-name="braceright" unicode="}" horiz-adv-x="392" 
d="M77 614q9 9 29 9t35 -1q81 -4 114 -40q11 -12 13.5 -20.5t2.5 -39.5q-2 -45 -5 -47q-7 -4 -17 -27q-13 -28 -25 -46q-13 -21 -8 -21q1 0 4 1q41 18 77 18q2 0 4.5 -0.5t3.5 -0.5q30 -5 30 -31q0 -17 -13 -37q-12 -19 -19 -26q-21 -18 -21 -29q0 -6 5 -18q7 -17 7 -39
q0 -56 -49 -112q-22 -26 -80 -63t-77 -37q-11 0 -21.5 9.5t-10.5 20.5t7.5 21.5t15.5 10.5q5 0 45.5 26.5t58.5 41.5q44 38 44 80q0 17 -8 28q-6 9 -6 27q0 17 6 32q3 7 -3 8q-4 0 -16 -2q-16 -2 -21 -2q-27 0 -39 23q-5 12 -5 20q0 24 36 87q38 67 38 89q0 17 -16.5 23
t-54.5 6q-55 0 -67 18q-4 5 -4 15q0 15 10 25z" />
    <glyph glyph-name="asciitilde" unicode="~" horiz-adv-x="480" 
d="M119 421q22 11 40 11q25 0 59 -18q36 -19 56 -39t35 -20q13 0 36 17q35 27 50 27q6 0 9 -1q22 -5 22 -28q0 -5 -1 -8q-3 -11 -29 -32.5t-49 -32.5q-20 -10 -42 -10q-26 0 -47 15q-17 11 -28 25q-10 14 -31.5 26t-36.5 12q-17 0 -42 -21t-35 -21q-12 0 -21.5 9.5
t-9.5 21.5q0 13 20.5 33.5t44.5 33.5z" />
    <glyph glyph-name="nbsp" unicode="&#xa0;" 
 />
    <glyph glyph-name="sterling" unicode="&#xa3;" horiz-adv-x="497" 
d="M298 645q27 10 47 10q23 0 42 -11q27 -15 27 -39t-28 -27q-18 -2 -26 6q-6 8 -16 8q-12 0 -37 -12t-50 -33t-33 -38q-8 -14 -12 -68l-3 -50h202l16 -14q16 -13 16 -23q0 -7 -8 -18q-5 -7 -21 -8t-94 -2h-107l-2 -68l-1 -69l107 -1q81 -2 95.5 -3.5t18.5 -10.5q4 -7 4 -16
q0 -25 -25 -30q-10 -2 -72 -2q-13 0 -44.5 0.5t-49.5 0.5l-148 2l-10 13q-9 12 -9 23q0 29 42 29q16 0 20 2.5t6 13.5q3 13 3 65v49l-38 -1h-16q-26 0 -31 5q-8 6 -8 23q0 13 4 18q9 14 69 16h18l3 59q2 51 12 79t35 54q43 45 102 68z" />
    <glyph glyph-name="yen" unicode="&#xa5;" horiz-adv-x="457" 
d="M68 632q13 13 25 9q13 -4 18.5 -10t8.5 -22q3 -17 13 -34q21 -37 72 -134q24 -46 28 -46q5 0 56 106q52 104 60 114q7 9 21 9q12 0 22 -7.5t10 -18.5q0 -12 -52 -116l-52 -104l37 -3q37 -2 47 -15q9 -12 9 -18q0 -7 -9 -19t-32 -12q-3 0 -12.5 0.5t-16.5 0.5l-53 2
l-7 -16q-9 -14 -9 -20q0 -2 30 -2h20h17q31 0 41.5 -6.5t10.5 -23.5t-13 -24t-50 -9q-45 -2 -49 -6q-3 -2 -5 -40q-1 -30 -6.5 -40.5t-21.5 -10.5q-36 0 -36 57v29l-41 -2q-4 0 -11 -0.5t-10 -0.5q-24 0 -33 6t-9 21q0 21 9.5 27t46.5 8l45 3q0 7 1.5 21.5t2.5 21.5l-43 2
q-29 2 -37 4t-15 11q-7 8 -7 18q0 14 17 23.5t44 9.5h20l-15 28q-11 18 -79 147q-20 38 -20 56q0 14 12 26z" />
    <glyph glyph-name="copyright" unicode="&#xa9;" horiz-adv-x="646" 
d="M448 548q-18 8 -63 8q-29 0 -54 -5q-93 -20 -115 -31q-58 -30 -84 -99q-17 -48 -17 -85q0 -84 72 -121q52 -26 105 -26q48 0 103 24.5t88 60.5q19 21 34 63.5t15 75.5q0 11 -1 15q-6 35 -31 71t-52 49zM183 574q80 53 174 53q22 0 46 -3q80 -11 128 -63q61 -69 61 -154
q0 -61 -31 -123q-48 -98 -166 -139q-47 -17 -101 -17q-75 0 -137 33t-89 89q-14 30 -14 84q0 43 7 71t27 69q30 58 95 100zM338 531q10 3 21 3q40 0 48 -41q1 -4 1 -10q0 -10 -14 -25q-15 -13 -22 -13q-8 0 -22 12q-5 5 -11 5q-10 0 -43 -27q-44 -38 -45 -99v-7q0 -26 6 -32
t22 -6q25 0 55 12q36 14 53 14q12 0 19 -11q7 -12 7 -21q0 -16 -15 -25q-19 -13 -53 -21.5t-63 -8.5q-25 0 -34 2.5t-24 12.5q-38 28 -38 89q0 85 63 142q49 45 89 55z" />
    <glyph glyph-name="registered" unicode="&#xae;" horiz-adv-x="615" 
d="M450 579q-10 12 -16 15t-19 3h-11q-77 -2 -132 -23.5t-111 -71.5q-49 -45 -49 -93q0 -43 34 -108q23 -45 56 -78t67 -44q29 -11 64 -11q29 0 67 10q37 12 53 29.5t27 59.5q21 81 21 147q0 106 -51 165zM351 663q12 6 28 2q15 -5 39 -5q42 0 76 -36t56 -103
q12 -39 12 -105q0 -141 -35 -209q-41 -83 -148 -97q-23 -3 -45 -3q-172 0 -260 199q-14 32 -16.5 46t-3.5 54q0 38 2.5 50.5t12.5 30.5q31 52 97.5 97.5t137.5 63.5q38 10 47 15zM319 465q-21 13 -25 13q-6 0 -6 -18q0 -3 0.5 -11.5t0.5 -15.5q1 -31 3.5 -36.5t13.5 -7.5
q5 -1 12 -1q17 0 24 23q4 16 4 20q0 17 -27 34zM261 535q10 5 24 5q23 0 53 -17q41 -23 56 -44t15 -57q0 -25 -19 -49q-16 -21 -16 -28q0 -4 29 -27q35 -27 35 -45q0 -5 -3 -13q-7 -15 -17 -15q-18 0 -69 39q-52 39 -55 39q-4 0 -4 -37q0 -38 -9 -47q-7 -9 -21 -9
q-10 0 -20 7q-7 5 -8.5 25.5t-1.5 108.5q0 86 1.5 108.5t8.5 33.5q12 17 21 22z" />
    <glyph glyph-name="plusminus" unicode="&#xb1;" horiz-adv-x="495" 
d="M207 545q6 6 23 6q20 0 26.5 -16t6.5 -66v-56l58 -4q47 -3 62 -9t15 -22q0 -11 -11 -22q-8 -8 -33 -8q-19 0 -32 1l-55 1l3 -65q2 -44 2 -46q0 -20 -10 -27t-17 -7q-9 0 -21 12q-8 8 -10.5 17t-2.5 36q0 42 -5 60l-5 19h-53q-44 0 -57.5 6t-13.5 26q0 13 11.5 24t24.5 11
q1 0 2.5 -0.5t2.5 -0.5q12 -3 48 -7l35 -3v67q0 67 6 73zM160 188q78 4 144 4h28q65 -1 77.5 -2.5t19.5 -11.5q10 -13 10 -20t-11 -18q-9 -8 -34 -10.5t-148 -4.5q-106 -2 -123 -2q-51 0 -57 3q-10 6 -10 23q0 22 16 28t88 11z" />
    <glyph glyph-name="uni00b2" unicode="&#xb2;" horiz-adv-x="376" 
d="M122 613q30 16 45 16q28 0 48.5 -37t20.5 -82q0 -34 -12 -57q-15 -28 -22 -36t-7 -13q0 -2 4 -2q2 0 5.5 1t9.5 2.5t11 2.5q37 11 63 11q34 0 34 -28q0 -16 -12 -25.5t-41 -14.5q-33 -5 -74 -18q-51 -14 -84 -14q-58 0 -58 34q0 22 33 38q18 9 46 42.5t36 54.5q7 21 7 26
q0 6 -6 23q-10 25 -12 25t-34 -21q-30 -20 -41 -20q-8 0 -18 7q-12 9 -12 20q0 30 70 65z" />
    <glyph glyph-name="uni00b3" unicode="&#xb3;" horiz-adv-x="330" 
d="M101 629q20 4 76 4q45 0 57 -3q13 -4 27 -18q16 -16 16 -35q0 -18 -16 -50l-16 -30l15 -13q10 -8 12 -15t2 -26q-2 -78 -90 -130q-47 -28 -79 -28q-10 0 -19 3q-20 6 -26 12.5t-6 20.5q0 17 10 24t34 7q30 1 57 18q22 14 38 32.5t16 30.5q0 6 -13 10.5t-31 4.5
q-14 0 -23.5 11.5t-9.5 25.5q0 13 9 21q10 8 22 10q10 2 26.5 20.5t16.5 28.5q0 2 -1 3q-2 2 -18 2q-19 0 -51 -3q-36 -4 -52 -4q-14 0 -21 9q-9 10 -9 18t12 21q14 15 35 18z" />
    <glyph glyph-name="uni00b9" unicode="&#xb9;" horiz-adv-x="273" 
d="M134 623q47 31 63 31q10 0 18 -8q6 -6 6 -17q0 -13 -2 -23q-3 -22 -3 -100v-30v-32q0 -126 -26 -148q-8 -7 -20 -7t-21 8t-9 20q0 1 0.5 3t0.5 3q11 49 11 123q0 26 -1 39q-4 66 -6 66q-5 0 -23 -16q-20 -16 -34 -16q-10 0 -21 10t-11 20q0 21 78 74z" />
    <glyph glyph-name="onequarter" unicode="&#xbc;" horiz-adv-x="628" 
d="M414 650q8 4 18 4q13 0 22 -8t9 -21q0 -8 -27 -68.5t-28 -64.5q-5 -17 -45.5 -96.5t-66.5 -122.5q-106 -171 -110 -174q-5 -4 -14 -4q-12 0 -22 9.5t-10 21.5q0 16 30 62q85 135 123 206.5t77 169.5q32 81 44 86zM155 633q21 7 31 7q26 0 35 -36.5t12 -139.5q2 -68 2 -74
q0 -36 -8 -46q-10 -10 -24 -10q-13 0 -21 8q-9 8 -9 62q0 62 -3 107q-4 53 -10 53h-2q-1 -1 -2 -1q-11 -3 -30 -23q-26 -26 -40 -26q-4 0 -10 2q-20 6 -20 27q0 5 3 13q7 19 37 42.5t59 34.5zM449 265q1 1 1 8q0 40 -7 40q-3 0 -20 -22.5t-17 -26.5q0 -3 17 -3q22 0 26 4z
M446 426q8 6 17 6q12 0 24 -10q13 -12 20 -91q3 -40 6 -49t14 -9h8h4q33 0 33 -28q0 -30 -32 -30q-15 0 -19 -9q-1 -1 -1 -6q0 -19 13 -75q4 -15 -8 -28q-11 -12 -20 -12t-19 9q-8 7 -18 38.5t-10 51.5v17l-54 -4q-14 -1 -32 -1q-22 0 -35 9q-13 11 -13 26q0 30 49 95
q38 51 48 67q16 24 25 33z" />
    <glyph glyph-name="onehalf" unicode="&#xbd;" horiz-adv-x="661" 
d="M129 614q31 20 51 20q19 0 33 -17q10 -16 10 -67q0 -41 -1 -73q-2 -104 -6.5 -126.5t-25.5 -22.5q-20 0 -25.5 10.5t-5.5 54.5q0 34 1 58v44q0 61 -2 61q-4 0 -34 -23q-29 -22 -40 -22q-9 0 -18 9q-10 10 -10 20q0 26 73 74zM416 581q10 12 22 12q10 0 21 -11t11 -21
q0 -14 -66 -108q-219 -312 -219 -335q0 -5 -11 -10.5t-21 -6.5q-11 0 -20.5 9.5t-9.5 20.5q0 8 37.5 71.5t70.5 110.5q77 110 108 157q63 95 77 111zM397 382q12 24 57 24q56 0 83 -25q23 -22 23 -56q0 -59 -63 -127l-14 -15h51q33 0 43 -1.5t17 -8.5q11 -11 11 -22
q0 -17 -15 -23t-68 -9q-98 -5 -104 -6q-11 -1 -25 -1q-16 0 -28 11q-14 12 -14 21q0 12 44 47q59 46 87 91q19 34 19 42t-16.5 13t-40.5 5h-10h-11q-18 0 -25 13q-8 14 -1 27z" />
    <glyph glyph-name="threequarters" unicode="&#xbe;" horiz-adv-x="670" 
d="M54 609q0 19 26 29t61 10q43 0 64 -12q22 -13 30 -28t8 -43v-6q-2 -38 -9 -50q-4 -5 -4 -10t13 -22q15 -20 15 -41v-9q-2 -67 -72 -103q-19 -10 -47 -10q-18 0 -43 3q-41 5 -41 30q0 6 1 9q6 23 56 23h12q4 0 10 -0.5t8 -0.5q20 0 31 10q24 21 24 41q0 4 -1 5q-3 8 -16 8
q-12 0 -25 -8q-9 -6 -26 -6h-6q-20 1 -27 16q-4 8 -4 18q0 23 31 33q27 9 43 27t16 39v7q-2 9 -9.5 10.5t-46.5 1.5q-45 0 -58.5 5.5t-13.5 23.5zM455 638q11 11 25 11q11 0 21 -8q9 -8 9 -24q0 -13 -7 -19q-6 -5 -28 -41t-48.5 -81.5t-37.5 -62.5q-14 -21 -14 -24
q0 -2 -39.5 -71t-52.5 -90q-67 -103 -84 -112q-10 -6 -25 2q-18 10 -18 26q0 10 8 21q54 73 145 232q126 219 146 241zM479 283q0 51 -1 51t-29.5 -41.5t-29.5 -44.5q-3 -3 -3 -6q0 -5 33 -8l30 -2v51zM461 423q16 26 36 26q18 0 32 -27q8 -15 10 -30t2 -63q0 -70 4 -82
t26 -12q43 0 43 -28q-1 -29 -42 -33l-26 -2v-37q0 -31 -7 -43t-24 -12q-16 0 -22.5 11.5t-8.5 42.5l-3 36l-72 2q-50 1 -62.5 3t-18.5 9q-8 11 -8 18q0 12 23 44q62 87 118 177z" />
    <glyph glyph-name="multiply" unicode="&#xd7;" horiz-adv-x="429" 
d="M327 535q10 6 18 6t19 -10.5t11 -18.5q0 -7 -6.5 -21.5t-13.5 -22.5q-3 -4 -43 -56l-37 -48l16 -14q25 -21 54.5 -60.5t29.5 -50.5q0 -13 -9 -21.5t-23 -8.5q-15 0 -39 30q-62 74 -72 74q-7 0 -60 -57q-52 -56 -65 -60q-2 -1 -7 -1q-24 0 -29 23q0 1 -0.5 3t-0.5 3
q0 11 13.5 28t54.5 60q45 47 45 52q0 7 -39.5 41.5t-59.5 45.5q-29 16 -30 29v5q0 13 9 21.5t23 8.5q32 0 109 -69l36 -31l19 21q21 26 44 58q23 35 33 41z" />
    <glyph glyph-name="divide" unicode="&#xf7;" horiz-adv-x="482" 
d="M203 521q13 15 28 15q13 0 27 -17q13 -16 13 -30q0 -12 -7 -27q-12 -29 -34 -29q-14 0 -28 15q-14 17 -14 36q0 22 15 37zM167 402q43 2 70 4t46 3t59 1h15q41 0 54 -6t15 -24v-7q0 -18 -16 -23t-68 -6q-157 -5 -164 -5q-60 -2 -70 -2q-35 0 -44.5 5.5t-9.5 21.5
q0 22 18.5 28.5t94.5 9.5zM219 288q11 9 27 9q13 0 23 -7q11 -7 11 -26q0 -24 -15 -37q-15 -12 -28 -12q-12 0 -20 7q-11 8 -11 31q0 25 13 35z" />
    <glyph glyph-name="uni0394" unicode="&#x394;" horiz-adv-x="508" 
d="M281 404q-1 1 -10 25.5t-18.5 44.5t-13.5 20t-9 -21q-2 -10 -46.5 -138t-44.5 -143q0 -5 43 -5q38 0 67 1q113 2 115 4q1 1 -31.5 85t-51.5 127zM212 592q13 11 23 11q12 0 27 -16q16 -17 48 -90q2 -4 8 -18.5t9 -20.5q12 -28 61 -151.5t49 -126.5q0 -2 8 -10q7 -7 7 -19
t-7 -22q-5 -8 -22 -8q-16 0 -28 1q-4 0 -26.5 0.5t-39.5 0.5q-14 0 -47 -0.5t-49 -0.5q-120 -1 -128 -9q-9 -7 -18 -7q-19 0 -27 17q-4 10 -4 15q0 9 13 47q70 203 78 232q45 155 65 175z" />
    <glyph glyph-name="rho" unicode="&#x3c1;" horiz-adv-x="446" 
d="M278 414q-21 12 -45 16q-12 2 -14 2q-12 0 -39 -26q-47 -44 -62 -125q-8 -45 -8 -70q0 -41 18 -46q3 -1 11 -1q55 0 136 42q32 17 43.5 31t11.5 39q0 14 -3 35q-13 82 -49 103zM179 484q20 9 45 9q38 0 76.5 -19t57.5 -49q28 -43 35 -130q1 -8 1 -22q0 -33 -10 -53
t-36 -41q-35 -27 -89 -50t-96 -27l-28 -3v-25q0 -28 5 -50t7 -71q1 -13 1 -29q0 -18 -8 -26q-9 -9 -21 -9t-21 8.5t-9 20.5q0 11 -8 27t-11 79q-4 68 -8 80q-11 33 -11 123q0 28 1 39q7 72 36 125q13 24 42.5 54t48.5 39z" />
    <glyph glyph-name="rho" unicode="&#x3a1;" horiz-adv-x="446" 
d="M278 414q-21 12 -45 16q-12 2 -14 2q-12 0 -39 -26q-47 -44 -62 -125q-8 -45 -8 -70q0 -41 18 -46q3 -1 11 -1q55 0 136 42q32 17 43.5 31t11.5 39q0 14 -3 35q-13 82 -49 103zM179 484q20 9 45 9q38 0 76.5 -19t57.5 -49q28 -43 35 -130q1 -8 1 -22q0 -33 -10 -53
t-36 -41q-35 -27 -89 -50t-96 -27l-28 -3v-25q0 -28 5 -50t7 -71q1 -13 1 -29q0 -18 -8 -26q-9 -9 -21 -9t-21 8.5t-9 20.5q0 11 -8 27t-11 79q-4 68 -8 80q-11 33 -11 123q0 28 1 39q7 72 36 125q13 24 42.5 54t48.5 39z" />
    <glyph glyph-name="tau" unicode="&#x3c4;" horiz-adv-x="435" 
d="M324 512q25 7 32 7q5 0 14 -8q13 -10 13 -32q0 -8 -3 -11.5t-15 -9.5q-18 -9 -75 -16q-56 -5 -58 -7q-8 -8 -8 -126q0 -26 2 -56q5 -58 8 -76t13 -31q11 -15 29 -15q22 0 42 19q20 18 32 18q13 0 22 -10t9 -24q0 -25 -35.5 -46.5t-73.5 -21.5q-13 0 -25 3
q-19 5 -39.5 25.5t-30.5 45.5q-10 24 -12 97.5t-2.5 134.5t-7.5 64q-1 1 -6 1q-13 0 -38 -5q-20 -4 -30 -4q-8 0 -16 7q-10 9 -10 21q0 18 20 30q21 12 119 15q104 3 130 11z" />
    <glyph glyph-name="tau" unicode="&#x3a4;" horiz-adv-x="435" 
d="M324 512q25 7 32 7q5 0 14 -8q13 -10 13 -32q0 -8 -3 -11.5t-15 -9.5q-18 -9 -75 -16q-56 -5 -58 -7q-8 -8 -8 -126q0 -26 2 -56q5 -58 8 -76t13 -31q11 -15 29 -15q22 0 42 19q20 18 32 18q13 0 22 -10t9 -24q0 -25 -35.5 -46.5t-73.5 -21.5q-13 0 -25 3
q-19 5 -39.5 25.5t-30.5 45.5q-10 24 -12 97.5t-2.5 134.5t-7.5 64q-1 1 -6 1q-13 0 -38 -5q-20 -4 -30 -4q-8 0 -16 7q-10 9 -10 21q0 18 20 30q21 12 119 15q104 3 130 11z" />
    <glyph glyph-name="Omega" unicode="&#x3a9;" horiz-adv-x="652" 
d="M291 644q24 10 40 10q14 0 53 -9q125 -30 171 -117q11 -23 13.5 -35.5t2.5 -50.5q0 -53 -12 -90q-24 -72 -65 -122l-23 -28l53 -3q54 -2 65 -12q10 -9 10 -23q0 -11 -6 -20t-47 -9q-32 0 -56 1q-81 2 -101.5 7.5t-20.5 29.5q0 15 44 60q43 46 63.5 81.5t29.5 83.5
q5 30 5 48q0 47 -28 79q-23 26 -65.5 44.5t-82.5 18.5q-20 0 -28.5 -5t-34.5 -33q-102 -107 -107 -135q-1 -4 -1 -15q0 -52 15 -103q10 -32 22 -57t17 -25q8 0 29.5 -21.5t21.5 -29.5q0 -10 -9 -21q-7 -7 -20.5 -8.5t-77.5 -3.5q-23 -1 -53 -1q-39 0 -45 9q-8 9 -8 21
q0 30 56 33q32 3 32 12q0 7 -9 27q-36 85 -36 168q0 31 8 49q20 39 125 150q34 35 60 45z" />
    <glyph glyph-name="alpha" unicode="&#x3b1;" horiz-adv-x="499" 
d="M244 292q-6 22 -26 42t-44 20q-13 0 -32.5 -25t-24.5 -48q-4 -17 -4 -42q0 -33 8 -61.5t20 -33.5h3q10 0 29 15.5t31 33.5q41 62 41 94q0 1 -1 3v2zM307 468q10 5 17 5q11 0 21 -10q9 -9 9 -18q0 -10 -7 -28q-5 -13 -17 -76l-11 -54l16 -35q28 -62 46 -90t43 -51
q19 -16 19 -28q0 -1 -0.5 -3t-0.5 -3q-1 -15 -15 -22q-7 -3 -15 -3q-44 0 -100 102q-26 45 -27 45q-3 0 -25 -35q-54 -84 -118 -84q-50 0 -78 60q-11 24 -12 93q0 46 2 60.5t11 34.5q25 52 65 76q23 13 41 13q2 0 6 -0.5t7 -0.5q30 -3 56 -22q20 -15 26 -15q3 0 6 6
q5 8 5 22q1 13 11.5 34.5t18.5 26.5z" />
    <glyph glyph-name="beta" unicode="&#x3b2;" horiz-adv-x="412" 
d="M258 564q-17 8 -43 8q-50 0 -73 -28q-9 -10 -19 -130t-10 -202q0 -23 1 -32q2 -36 6 -47t18 -11q3 0 27 4q39 7 82.5 34t43.5 44q0 19 -39 48.5t-71 34.5q-44 7 -54 29q-2 4 -2 8q0 10 5.5 20t12.5 11q44 2 69 21q26 19 40 46q9 19 18.5 60t9.5 60q0 6 -1 8q-3 7 -21 14z
M165 630q16 4 40 4q65 0 100 -22q17 -9 28 -28q9 -15 9 -33q0 -15 -1 -27q-9 -120 -63 -175l-23 -24l22 -16q82 -59 82 -108q0 -14 -4.5 -23t-21.5 -27q-34 -37 -92 -64.5t-102 -27.5h-20l4 -21q3 -19 11 -38q5 -10 5 -22q0 -13 -7 -22.5t-18 -9.5q-10 0 -18 7
q-14 10 -23 29q-23 43 -23 231q0 49 3 90q1 16 10 146q5 80 14 103q9 27 34 48.5t54 29.5z" />
    <glyph glyph-name="gamma" unicode="&#x3b3;" horiz-adv-x="377" 
d="M61 461q10 13 22 13q11 0 22 -8t11 -15q0 -5 19 -66t26 -80q3 -6 10.5 -24t10.5 -25q10 -23 13 -23t4 6q2 8 12 72q14 105 39 129q17 17 38 17q13 0 24 -8q10 -7 11.5 -20t1.5 -76q0 -62 -2 -77t-12 -35q-13 -26 -35 -50q-20 -21 -28 -63q-4 -25 -21 -87
q-6 -18 -11 -37.5t-9 -32t-12 -29.5q-7 -14 -11.5 -17t-18.5 -3q-28 0 -28 21q0 18 23 93q10 34 19 71q2 7 2 17q0 11 -13 25q-24 28 -59.5 116t-50.5 156q-3 15 -3 21q0 10 6 19z" />
    <glyph glyph-name="eta" unicode="&#x3b7;" horiz-adv-x="449" 
d="M69 539q9 6 18 6q12 0 22 -10q9 -9 9 -22q0 -3 -2 -27q-1 -9 -1 -23q0 -16 5 -16t16 11t53 31q28 14 41.5 17.5t38.5 3.5q40 0 63 -15.5t40 -52.5q12 -25 19 -113t7 -184q0 -91 -8 -147q-9 -60 -17 -70q-8 -9 -19 -9q-10 0 -20 7q-9 6 -9 31q0 23 6 87q4 54 4 83
q0 17 -4 121q-2 44 -3.5 72t-4.5 52t-7 37t-10 22.5t-13.5 12.5t-18.5 3q-10 0 -15 -1q-49 -6 -100 -54q-29 -27 -35 -27q-5 0 -5 -26q0 -27 6 -113q1 -13 2 -29.5t1.5 -25.5t0.5 -15q0 -20 -8 -30q-9 -10 -24 -10t-22 9q-9 10 -12 42.5t-7 153.5q-5 133 -5 150
q-1 16 5.5 39.5t12.5 28.5z" />
    <glyph glyph-name="lambda" unicode="&#x3bb;" horiz-adv-x="519" 
d="M166 685q8 11 21 11q9 0 17 -6q12 -9 39 -60t46 -100q20 -55 32 -81q7 -16 7 -23t10 -27q11 -27 26 -73q45 -140 81 -199q18 -27 18 -45q0 -23 -29 -23q-17 0 -30 16q-17 20 -43.5 79t-45.5 118q-7 23 -13 31q-2 3 -4 3q-7 0 -72 -89q-53 -72 -86 -105q-42 -43 -58 -43
q-10 0 -19 9q-9 8 -9 17q0 15 39 58q30 33 79.5 100t64.5 85l36 44l-17 53q-33 96 -80 184q-18 33 -18 46q0 9 8 20z" />
    <glyph glyph-name="uni03BC" unicode="&#x3bc;" horiz-adv-x="443" 
d="M308 505q0 7 13 16.5t22 9.5q11 0 26.5 -16t19.5 -31q1 -4 1 -39q0 -47 -1 -75q-1 -25 -1 -85q0 -70 2 -94q3 -35 3 -54q0 -27 -6.5 -34.5t-23.5 -7.5q-23 0 -28.5 14t-5.5 71q0 62 -5 62t-16 -40q-20 -62 -54 -88q-15 -12 -43 -12q-30 0 -48 13q-16 11 -23 11
q-3 0 -3 -3q0 -2 1 -3q3 -6 12 -123l10 -116l-12 -9q-12 -9 -22 -9q-9 0 -18 6q-9 8 -13 48q-13 137 -28 347q-7 105 -13 164q-3 27 -3 50q0 12 1 15q4 14 12 23t16 9q13 0 29.5 -9t19.5 -17q1 -2 1 -11q0 -21 -4 -41q-3 -19 -3 -43q0 -77 20 -135q27 -81 53 -99q9 -6 15 -6
q18 0 42 72q14 45 16.5 63.5t2.5 79.5q0 86 8 100q9 14 18 18q10 4 10 8z" />
    <glyph glyph-name="pi" unicode="&#x3c0;" horiz-adv-x="551" 
d="M446 502q7 7 25 -11q14 -14 10 -27q-4 -15 -14.5 -20.5t-39.5 -8.5q-38 -4 -43 -6q-20 -6 -20 -126q0 -66 7 -93t27 -35q11 -4 18 -4q9 0 19 5q17 7 31 7q17 0 26 -13q6 -9 6 -16q0 -13 -24 -31q-13 -10 -22.5 -12.5t-35.5 -2.5q-28 0 -37 2.5t-25 15.5q-21 15 -36 47
q-10 21 -11.5 39.5t-1.5 102.5v112h-51q-50 0 -52 -4q-1 -1 -1 -13q0 -31 5 -102t8 -83q4 -13 6 -74v-12q0 -39 -6.5 -51.5t-25.5 -12.5q-31 0 -31 57q0 29 -19 258l-3 37h-30q-20 0 -27 2.5t-14 12.5q-10 13 -10 20q0 4 7 15q5 7 24 8.5t114 4.5q241 6 247 12z" />
    <glyph glyph-name="sigma" unicode="&#x3c3;" horiz-adv-x="561" 
d="M352 408q-7 11 -15 13t-46 4h-19q-48 0 -93 -26q-28 -16 -46.5 -43.5t-18.5 -50.5q0 -16 33.5 -58t62.5 -62q14 -11 27 -11q15 0 41 13q43 21 71.5 59.5t28.5 75.5q0 17 -8.5 44t-17.5 42zM209 486q16 6 86 6h47q93 -1 121.5 -6t38.5 -24q5 -10 5 -13q0 -4 -8 -15
q-10 -14 -30 -14q-14 0 -33 4q-10 2 -11 2q-5 0 -5 -5q0 -4 8 -23q7 -17 9 -72v-18q0 -35 -14 -63q-17 -36 -57.5 -72t-83.5 -54q-19 -8 -41 -8q-29 0 -50 12q-20 10 -59 49t-59 68q-13 20 -16 30t-3 37q0 39 13 65q11 22 52.5 61.5t56.5 42.5q26 7 33 10z" />
    <glyph glyph-name="phi" unicode="&#x3c6;" horiz-adv-x="515" 
d="M362 383q-27 27 -37 27q-9 0 -15 -18q-8 -26 -8 -138q0 -54 4 -58q1 -1 2 -1q8 0 34 20t32 32q30 58 30 76q-1 18 -42 60zM291 481q4 2 13 2q20 0 46 -12t46 -32q36 -34 51.5 -59t15.5 -53t-17 -74q-14 -38 -31.5 -58t-58.5 -45l-50 -31l-1 -143q-2 -99 -3.5 -123.5
t-8.5 -31.5q-10 -10 -23 -10q-14 0 -24 10q-8 8 -8 34q0 19 1 32q0 7 0.5 27.5t0.5 32.5t-0.5 34t-0.5 32l-1 70l-33 3q-123 10 -144 170q-9 77 -9 148q0 21 2 31q4 14 16.5 26.5t22.5 12.5t23 -11t13 -19q0 -9 -8 -20q-7 -10 -7 -33q0 -6 2 -42q7 -108 26.5 -152t61.5 -44
h8l23 2l4 117q2 117 12 142q8 23 20.5 43.5t19.5 23.5z" />
    <glyph glyph-name="omega" unicode="&#x3c9;" horiz-adv-x="545" 
d="M403 543q11 8 18 8q5 0 23 -5q17 -5 23 -17t16 -58q12 -60 12 -170q0 -53 -5 -76q-10 -49 -47.5 -92t-69.5 -43q-33 0 -62 44q-15 24 -19 24q-3 0 -20 -23q-27 -34 -57.5 -54.5t-53.5 -20.5q-7 0 -10 1q-55 14 -88 130q-11 35 -11 135q0 82 6 111t29 59q13 18 25 18h6
q16 -2 26 -16l11 -14l-17 -25q-26 -41 -26 -131q1 -61 13 -116t31 -79l11 -13l24 22q27 25 36.5 41.5t16.5 50.5q7 38 15.5 50.5t25.5 12.5t26 -11.5t21 -47.5q20 -62 36 -75q3 -3 7 -3q15 0 40 43q9 17 11 35t2 94v105l-18 40q-18 39 -18 50q0 8 11 16z" />
    <glyph glyph-name="uni09f3" unicode="&#x9f3;" horiz-adv-x="553" 
d="M136 635q27 9 51 9q47 0 58 -31q5 -15 5 -81v-65l110 2q28 1 64 1q46 0 52 -9q7 -10 7 -21q0 -12 -8 -19q-8 -8 -114 -12q-105 -4 -111 -8q-8 -5 -8 -49q0 -60 12 -98q9 -24 18 -31.5t36 -7.5q17 0 28 1q46 1 66 14q14 8 15.5 11t-5.5 8q-9 6 -17 22q-3 7 -3 12q0 8 8 19
q26 37 55 37q15 0 28 -13q12 -13 14 -54q2 -28 2 -30q0 -15 -13 -28q-33 -35 -83 -54q-25 -10 -80 -10q-53 0 -78 13q-24 14 -34 29q-14 20 -23.5 66.5t-9.5 90.5v53l-25 -4q-7 -1 -16 -1q-11 0 -20 12q-11 14 -11 21q0 6 9 18q11 12 40 15l31 3l1 58v24q0 34 -4 34
q-7 0 -53 -16q-34 -12 -50 -12q-20 0 -25 21q-2 8 -2 11q0 15 11.5 23.5t39.5 16t32 9.5z" />
    <glyph glyph-name="endash" unicode="&#x2013;" horiz-adv-x="396" 
d="M128 345q14 1 36 1.5t49.5 1t40.5 0.5h25q45 0 54 -8t9 -22q0 -15 -10 -24q-7 -6 -26 -8t-105 -4q-78 -2 -99 -2h-14.5h-11.5l-4 1q-8 2 -15 17q-3 9 -3 13q0 6 7 16q8 10 18 13t49 5z" />
    <glyph glyph-name="emdash" unicode="&#x2014;" horiz-adv-x="802" 
d="M267 330q38 0 111 1t128.5 1.5t88.5 0.5h51q71 0 86.5 -5t15.5 -26q0 -16 -12 -21q-22 -8 -229 -13h-1h-1h-1h-1h-1h-1h-1h-1h-1h-1h-1l-1 -1h-1h-1h-1h-1h-1h-1h-1h-1h-1h-1h-1h-1h-1h-1h-1h-1h-2h-1q-192 -4 -234 -4q-163 0 -179 13q-9 8 -9 22q0 13 9 22q6 6 36.5 7
t167.5 3z" />
    <glyph glyph-name="quoteleft" unicode="&#x2018;" horiz-adv-x="201" 
d="M99 632q12 7 17 7q9 0 21 -13q13 -12 10 -24q-3 -10 -9 -55q-17 -132 -34 -144q-11 -7 -18 -7q-11 0 -23 12q-10 10 -10 22q0 9 8 46q3 13 10 65q9 78 28 91z" />
    <glyph glyph-name="quoteright" unicode="&#x2019;" horiz-adv-x="197" 
d="M74 577q3 22 13 39t24 17q11 0 23 -12q11 -11 11 -22q0 -8 -1 -13q-3 -17 -10 -42.5t-11 -54.5q-2 -10 -5 -26t-4.5 -25.5t-2.5 -13.5q-7 -23 -29 -23q-6 0 -16 4q-9 4 -11 9.5t-2 26.5q1 22 21 136z" />
    <glyph glyph-name="quotedblleft" unicode="&#x201c;" horiz-adv-x="327" 
d="M75 583q3 24 13 43t26 19q13 0 22.5 -7.5t9.5 -17.5q0 -23 -23 -138q-11 -56 -37 -56q-9 0 -22 11q-11 11 -11 26q0 9 5 29q12 48 17 91zM216 626q9 14 26 14t26 -14q5 -10 5 -17q0 -12 -11 -60q-5 -23 -10 -62q-4 -36 -11 -48q-5 -11 -10 -14t-15 -3q-18 0 -25.5 8.5
t-7.5 29.5q0 11 1 17q4 39 14 77q10 46 10 51q0 10 8 21z" />
    <glyph glyph-name="quotedblright" unicode="&#x201d;" horiz-adv-x="316" 
d="M219 625q8 3 14 3q11 0 21 -7t10 -20q0 -2 -2 -26q-4 -39 -14 -88.5t-15 -56.5q-6 -8 -18 -8q-16 0 -28 12q-9 9 -9 21q0 5 1 9q1 7 12 77q12 77 28 84zM95 619q11 4 16 4q7 0 14 -5q17 -9 17 -32q0 -5 -2 -17q-27 -127 -39 -135q-9 -6 -17 -6q-12 0 -22 10q-9 9 -9 21
q0 3 2 19q4 30 25 121q4 15 15 20z" />
    <glyph glyph-name="ellipsis" unicode="&#x2026;" horiz-adv-x="544" 
d="M88 204q10 2 15 2q37 0 37 -44q0 -19 -11.5 -33t-30.5 -17q-4 -1 -10 -1q-11 0 -23 13q-13 13 -13 28q0 14 12 31.5t24 20.5zM251 203q11 6 28 6q14 0 19 -4q6 -5 14.5 -19t8.5 -20q0 -9 -9 -25t-16 -20q-10 -5 -21 -5q-17 0 -30 11q-12 11 -12 35q0 20 3 27t15 14z
M420 206q6 2 17 2q28 0 45 -26q10 -17 10 -21q0 -8 -18 -27q-17 -17 -27 -17q-8 0 -13 1q-19 3 -32 15t-13 26q0 10 11.5 27.5t19.5 19.5z" />
    <glyph glyph-name="fraction" unicode="&#x2044;" horiz-adv-x="486" 
d="M384 618q10 11 23 11q18 0 25 -19q1 -3 1 -9q0 -30 -38 -74q-44 -52 -85 -118q-145 -232 -181 -285q-19 -28 -40 -29q-15 0 -23.5 8.5t-8.5 20.5t11 25q8 8 34 50q18 28 54 83.5t66 104.5q46 75 52 84q6 6 14 19t46.5 64t49.5 64z" />
    <glyph glyph-name="uni2070" unicode="&#x2070;" horiz-adv-x="310" 
d="M176 550q-10 11 -17 11q-10 0 -22 -28q-17 -42 -17 -94t16 -84q13 -24 20 -24q5 0 14 10q21 27 26 103q0 4 0.5 10t0.5 10q0 63 -21 86zM118 623q12 4 28 4q30 0 57 -18t43 -51q11 -22 11 -70v-33q0 -54 -2 -70.5t-12 -40.5q-33 -82 -87 -82q-8 0 -12 1q-15 3 -33.5 21
t-30.5 41q-27 56 -27 125q0 30 6 52q3 11 10 53q8 56 49 68z" />
    <glyph glyph-name="uni2074" unicode="&#x2074;" horiz-adv-x="369" 
d="M182 423v3q0 2 0.5 6t1 9t0.5 11v11q0 38 -6 38l-2 -2q-4 -5 -21.5 -40.5t-17.5 -39.5q0 -3 12 -3q29 0 33 7zM174 610q10 9 24 9q24 0 37 -25q9 -17 13 -133l1 -37l22 2h6q36 0 36 -30q0 -27 -42 -35l-22 -5v-43q0 -28 -2 -36.5t-11 -15.5q-12 -9 -18 -9q-7 0 -19 9
q-13 9 -15 50l-3 41h-51q-38 0 -46 2t-17 12q-13 15 -13 26q0 19 48 105q55 98 72 113z" />
    <glyph glyph-name="uni2075" unicode="&#x2075;" horiz-adv-x="353" 
d="M145 619q98 4 101 4q34 0 44 -8q9 -9 9 -20q0 -25 -27 -31q-1 0 -36.5 -3.5t-70 -7t-35.5 -4.5q-4 -4 -4 -19q0 -8 8.5 -11.5t52.5 -15.5q56 -15 71 -26t15 -37q0 -45 -41 -85q-17 -17 -27 -22t-32 -9q-33 -6 -53 -6q-28 0 -39 12q-9 10 -9 21q0 12 12.5 20.5t32.5 8.5
q25 0 49.5 8.5t31.5 20.5q9 13 7 19q-1 4 -35 14t-60 14q-29 4 -37.5 7.5t-14.5 15.5q-5 7 -5 17t5 28q8 32 8 51q0 25 14 33t65 11z" />
    <glyph glyph-name="uni2076" unicode="&#x2076;" horiz-adv-x="316" 
d="M188 440q-12 12 -21 12q-10 0 -29 -19t-19 -37q0 -10 6 -23q4 -12 13 -12q12 0 34 21q27 24 27 38q0 9 -11 20zM141 624q22 9 36 9t35 -4q42 -8 42 -33q0 -12 -12 -24q-10 -9 -26 -9q-11 0 -20 1q-5 0 -11.5 0.5t-8.5 0.5q-8 0 -13 -1.5t-8 -4.5t-10 -11q-16 -18 -16 -23
q0 -6 -3 -12q-3 -7 2 -6q2 0 9 3q15 5 27 5q38 0 73 -35q25 -25 25 -55q0 -7 -4 -29q-7 -37 -46 -67.5t-77 -30.5q-9 0 -13 1q-63 12 -69 114q-1 10 -1 28q0 68 23 116t66 67z" />
    <glyph glyph-name="uni2077" unicode="&#x2077;" horiz-adv-x="346" 
d="M123 619q57 4 94 4q36 0 49 -7q26 -13 26 -41q0 -9 -20 -50.5t-27 -45.5t-37 -67t-30 -71q0 -11 -10 -22t-21 -11t-24 13q-10 10 -10 20q0 7 1 12q2 13 4 19.5t6.5 14.5t8.5 19q11 27 45 86l36 62l-70 1q-58 1 -74 7t-16 26q0 17 12.5 22.5t56.5 8.5z" />
    <glyph glyph-name="uni2078" unicode="&#x2078;" horiz-adv-x="323" 
d="M201 422q-5 3 -28 3h-9q-20 0 -25.5 -2.5t-11.5 -12.5q-8 -13 -8 -33q0 -19 7 -33q8 -14 20 -14q16 0 38 21q8 7 14.5 26t6.5 33q0 9 -4 12zM178 567q-18 10 -27 10q-8 0 -23 -15t-15 -23q0 -20 35 -32q20 -7 31 -7q13 0 17 12q3 9 3 17q0 25 -21 38zM121 637
q30 12 39 12t22 -10q12 -10 17 -10q7 0 27 -20t27 -34q9 -21 9 -47q0 -25 -7 -39q-5 -10 -5 -13q0 -6 9 -18q11 -14 11 -42q0 -29 -12.5 -61.5t-33.5 -53.5q-34 -34 -82 -34q-45 0 -65 29q-9 12 -19 48q-6 24 -6 33q0 10 6 31q9 34 19 45q7 9 7.5 12t-6.5 9q-26 21 -26 61
q0 25 10 49q8 20 20.5 31.5t38.5 21.5z" />
    <glyph glyph-name="uni2079" unicode="&#x2079;" horiz-adv-x="333" 
d="M194 529h-6q-29 0 -48 -11.5t-19 -29.5q0 -9 14 -9q11 0 19 1q65 6 65 32q0 11 -4.5 13.5t-20.5 3.5zM158 593q15 3 31 3q37 0 56 -11q21 -13 27.5 -28t6.5 -50q0 -30 -3.5 -43.5t-18.5 -43.5q-23 -44 -45.5 -67.5t-59.5 -41.5q-36 -17 -49 -17q-15 0 -25 15
q-10 14 -4 27q6 14 20 19q54 21 72 42q11 12 11 18q0 4 -8 4q-6 0 -10 -1q-5 -1 -15 -1q-24 0 -47 6.5t-31 16.5q-12 14 -12 39q0 49 31 77q28 28 73 37z" />
    <glyph glyph-name="uni2080" unicode="&#x2080;" horiz-adv-x="370" 
d="M241 218q-9 10 -31 10q-20 0 -41 -9q-39 -16 -39 -82q0 -29 16.5 -54t36.5 -25q15 0 31 13.5t24 33.5q13 27 13 69q0 34 -10 44zM133 286q13 8 46 8q52 0 85 -15q52 -26 52 -99q0 -28 -9.5 -67t-20.5 -57q-17 -26 -45.5 -43.5t-55.5 -17.5q-49 0 -83.5 41t-35.5 99
q0 33 -7 45q-9 11 -3 24q5 11 33.5 41.5t43.5 40.5z" />
    <glyph glyph-name="uni2081" unicode="&#x2081;" horiz-adv-x="291" 
d="M83 282q15 16 22.5 20t20.5 4q41 0 49 -19q3 -6 10 -115l6 -106l15 -4q29 -8 29 -33q0 -11 -9 -20q-6 -5 -36.5 -9.5t-56.5 -4.5q-13 0 -23 2q-22 6 -22 25q0 21 23 33l16 9l-3 60q-4 62 -7 77q-2 12 -4 13.5t-11 -4.5t-20 -6q-21 0 -26 17q-2 8 -2 12q0 20 29 49z" />
    <glyph glyph-name="uni2082" unicode="&#x2082;" horiz-adv-x="373" 
d="M144 337q17 3 36 3q41 0 61 -11q35 -20 35 -68q0 -25 -9 -59q-13 -52 -60 -111q-23 -30 -23 -35q0 -3 7 -3q6 0 36.5 5.5t47.5 5.5q19 0 28 -6q14 -11 14 -25q0 -13 -10 -20q-10 -9 -59.5 -17t-92.5 -8q-13 0 -31 2q-30 4 -42 12.5t-12 23.5q1 11 9 23.5t15 12.5
q4 0 37.5 39t49.5 62q10 14 22 47.5t12 46.5q0 12 -14 18q-9 3 -19 3q-35 0 -78 -31q-10 -7 -20 -7q-12 0 -20.5 8.5t-8.5 21.5q0 5 1 8q5 17 31 34.5t57 24.5z" />
    <glyph glyph-name="uni2083" unicode="&#x2083;" horiz-adv-x="335" 
d="M99 278q33 9 40 9q11 0 20 -1q26 -1 55.5 -15t48.5 -34q11 -12 14 -19.5t3 -24.5q0 -27 -14 -47q-12 -16 -12 -21q0 -3 3 -8q5 -11 10 -11t9.5 -14t4.5 -28q0 -7 -1 -10q-4 -21 -48 -38.5t-100 -21.5q-13 -1 -29 -1q-18 0 -27 10q-11 11 -11 23q0 14 16 23.5t42 9.5
q25 0 53.5 5t28.5 10q0 17 -38 17q-28 0 -36 8q-9 9 -9 20q0 15 13.5 27t33.5 12q21 0 33 13q12 12 12 19q0 10 -26 23q-21 11 -31 11q-1 0 -23 -4q-26 -5 -30 -11q-3 -5 -13 -5q-16 0 -27 9q-10 9 -10 21q0 14 12.5 26.5t32.5 17.5z" />
    <glyph glyph-name="uni2084" unicode="&#x2084;" horiz-adv-x="392" 
d="M180 132q2 30 2 36q0 9 -21 -21q-33 -48 -33 -55q0 -3 24 -1l25 2zM180 282q16 16 36 16q14 0 23 -9q7 -7 7 -34q0 -5 -2 -63q-2 -62 -2 -64q0 -21 5 -21q2 0 3 1q13 5 36 7h9q41 0 41 -32q0 -29 -42 -32q-34 -2 -43 -9t-12 -33q-1 -8 -1.5 -18t-1 -13t-2 -8t-5 -8
t-10.5 -7q-14 -8 -28 0q-10 5 -12 11.5t-4 29.5l-1 34l-45 -4q-11 -1 -28 -1q-28 0 -37 9.5t-9 34.5q0 23 22 59q70 119 103 154z" />
    <glyph glyph-name="uni2085" unicode="&#x2085;" horiz-adv-x="319" 
d="M99 258q10 10 19.5 12t59.5 2q44 0 57 -2t20 -9q10 -10 10 -22t-10 -22q-9 -8 -39 -8h-22q-4 0 -11 0.5t-10 0.5q-29 0 -32 -7q-5 -8 -5 -13q0 -10 14 -13q13 -3 48.5 -34.5t43.5 -47.5t8 -29q0 -14 -16 -40.5t-33 -42.5q-13 -12 -22.5 -15.5t-38.5 -5.5q-10 -1 -25 -1
q-20 0 -40 10q-15 8 -18.5 12.5t-3.5 16.5q0 31 29 31q8 0 17 -3q7 -2 20 -2q45 0 59 29q2 6 2 8q0 14 -31 38q-18 15 -46 15q-23 0 -36.5 9.5t-13.5 25.5q0 14 17 54t29 53z" />
    <glyph glyph-name="uni2086" unicode="&#x2086;" horiz-adv-x="310" 
d="M185 67q-17 5 -42 5q-10 0 -13 -1q-9 -2 -10.5 -5t0.5 -15q3 -19 15 -31t28 -12q18 0 23 9q5 12 5 28q0 19 -6 22zM177 276q18 5 23 5q8 0 17 -9q11 -11 11 -25q0 -17 -15 -24t-33.5 -27t-29.5 -39l-11 -20h21q21 0 47 -11q28 -13 37 -32q11 -24 11 -49q0 -27 -12 -53
q-7 -16 -14.5 -23.5t-25.5 -15.5q-24 -11 -39 -11q-20 0 -50 15q-22 11 -38.5 34.5t-20.5 48.5q-1 4 -1 16q0 58 13 80q2 3 7.5 15t8.5 19q14 28 46 65t48 41z" />
    <glyph glyph-name="uni2087" unicode="&#x2087;" horiz-adv-x="370" 
d="M64 247q7 7 15.5 9t35.5 2h31q84 -2 115.5 -5.5t42.5 -12.5q13 -10 13 -24q0 -16 -15 -31q-13 -13 -40 -59q-14 -25 -37.5 -63.5t-36.5 -62.5q-16 -30 -22.5 -37t-18.5 -7q-14 0 -23.5 9t-9.5 22q0 9 22.5 53t35.5 59q5 5 27 47l23 42l-19 3q-15 3 -74 3q-39 0 -48.5 2
t-17.5 12q-10 13 -10 21t11 18z" />
    <glyph glyph-name="uni2088" unicode="&#x2088;" horiz-adv-x="313" 
d="M187 40q3 19 -1 19q-4 -1 -22 -22.5t-22 -30.5t1 -20q2 -4 3 -5.5t3 -2t4 1t6 5.5q22 21 28 55zM175 182q-7 12 -30 12q-6 0 -10.5 -0.5t-7.5 -0.5t-5 -2t-3.5 -3t-2 -5t-1 -6t-1.5 -8.5t-1 -10.5l-3 -26h24q17 0 23 3t14 16q10 14 10 19q0 4 -6 12zM109 257q7 3 49 3h17
l57 -1l15 -18q14 -15 14 -28q0 -9 -1 -15q-3 -25 -19 -51q-15 -26 -15 -28t13 -21q12 -19 12 -47q0 -31 -14 -62.5t-37 -51.5t-49 -20q-30 0 -52.5 23.5t-22.5 56.5q0 22 12 45q13 24 13 25t-15 5q-22 4 -28 18.5t-6 58.5q1 55 11 71q16 26 46 37z" />
    <glyph glyph-name="uni2089" unicode="&#x2089;" horiz-adv-x="339" 
d="M197 228q-14 9 -30 9q-20 0 -34 -11.5t-14 -29.5q0 -10 21 -35.5t29 -25.5q7 0 29 26q20 23 20 31q0 7 -2 11q-5 14 -19 25zM55 182q-1 4 -1 13q0 40 32.5 73t78.5 33q24 0 48 -10q20 -8 41 -30.5t26 -41.5q5 -22 5 -41q0 -61 -37 -130t-98 -120q-31 -25 -45 -25
q-8 0 -18 8q-10 9 -10 20q0 17 20 34q43 39 75 80l21 25l-23 4q-41 5 -77 44q-21 23 -28 34.5t-10 29.5z" />
    <glyph glyph-name="Euro" unicode="&#x20ac;" horiz-adv-x="525" 
d="M299 632q16 4 39 4q31 0 59 -8t37 -21q8 -11 8 -21q0 -11 -8.5 -19.5t-20.5 -8.5q-11 0 -18 5q-16 9 -48 9q-39 0 -57 -12q-43 -29 -64 -90l-6 -17h81q81 0 91 -9q9 -8 9 -20q0 -13 -10 -23q-7 -7 -23 -8.5t-78 -1.5q-89 0 -93 -9t-1 -12q1 -1 100 -5q71 -2 85 -4t21 -11
q9 -12 9 -18q0 -7 -8 -18q-6 -8 -19.5 -9.5t-83.5 -1.5h-97l4 -17q5 -26 25.5 -51.5t46.5 -39.5q17 -9 42 -9q39 0 75 17t44 17q11 0 20 -9.5t9 -21.5t-8.5 -21t-30.5 -20q-50 -25 -100 -25q-68 0 -120 44t-71 120l-5 23l-31 2q-49 3 -49 32t49 32q21 2 26 3.5t5 8.5t-5 8.5
t-23 3.5q-47 3 -47 31q0 11 11 22q9 9 24 9q13 0 23 -1q22 -2 24 -2q13 0 17 13q11 30 32.5 66t39.5 54q28 30 69 40z" />
    <glyph glyph-name="uni20b9" unicode="&#x20b9;" horiz-adv-x="483" 
d="M311 632q32 5 57 5h8q15 -1 20 -3.5t12 -13.5l11 -18l-13 -12q-12 -12 -64 -18q-56 -6 -62 -8l-12 -3q5 -10 15.5 -29t15.5 -28l22 3q4 1 57 6q20 2 23 2q13 0 19 -8q7 -8 7 -20t-8 -20q-10 -8 -61 -17l-50 -10l-15 -26q-13 -22 -35.5 -46t-39.5 -33l-15 -8l79 -78
q78 -78 78 -91q0 -26 -33 -26q-15 0 -31.5 13.5t-83.5 81.5q-94 96 -100 96q-5 0 -9 8.5t-4 18.5q0 6 2 12q6 19 37 19h8h3q40 0 68 31q15 16 12 19h-3q-7 0 -71 -4q-56 -4 -69 -4q-10 0 -11 1q-19 6 -19 30q0 6 1 9q3 15 22 20t84 8q62 4 67 6q2 4 -12 23q-9 14 -14.5 17
t-23.5 4q-25 0 -53 14q-18 9 -23.5 14t-6.5 16q0 2 -0.5 4.5t-0.5 3.5q0 15 16.5 20t77.5 8q78 4 121 11z" />
    <glyph glyph-name="uni2102" unicode="&#x2102;" horiz-adv-x="538" 
d="M165 617q0 9 -15 -6q-3 -4 -7 -9q-14 -19 -19.5 -37.5t-7.5 -59.5q-1 -12 -1 -35q0 -125 49 -177q12 -14 18 -14q3 0 3 6q0 10 -9 37q-12 37 -21.5 90.5t-9.5 84.5q0 39 10 77q10 37 10 43zM222 712q25 5 46 5q39 0 75 -12q68 -23 90.5 -33t34.5 -23q16 -17 16 -34
q0 -12 -8 -19.5t-22 -7.5q-18 0 -32 15q-10 10 -21 15t-27 9.5t-28 9.5q-28 11 -40 11q-16 0 -38 -16q-29 -21 -40.5 -40t-16.5 -54q-2 -12 -2 -38q0 -64 18.5 -134t44.5 -100q14 -15 25 -15q3 0 23 2q41 4 65 10q22 4 23 4q8 0 17 -11q10 -11 10 -22q0 -22 -52 -35
q-43 -10 -85 -10t-85 10q-65 17 -102 62t-51 125q-8 46 -8 90q0 87 25 137q7 15 28.5 36.5t41.5 34.5q30 17 75 28z" />
    <glyph glyph-name="uni2115" unicode="&#x2115;" horiz-adv-x="474" 
d="M179 633q-7 7 -20 7q-8 0 -12 -4q-2 -2 7 -19q12 -17 60 -116q47 -97 73 -132q19 -26 42 -51.5t28 -25.5t5 11q0 27 -16 46q-54 67 -123 202q-38 74 -44 82zM66 707q12 9 17 9q7 0 28 -7q22 -7 40 -7q15 0 32 6q9 3 15 3t15 -6q14 -10 14 -17q0 -9 43 -93.5t63 -116.5
l26 -38l1 20q0 2 0.5 7t0.5 8q0 22 -5 76.5t-5 70.5q0 26 2.5 35t10.5 17q13 13 25 9q17 -5 20.5 -14.5t3.5 -46.5q0 -42 6 -110q5 -57 5 -193q0 -88 -1.5 -111t-7.5 -30q-9 -10 -21 -10q-17 0 -30 20q-12 17 -61 68q-43 44 -71 85t-66 117l-38 75l3 -54q5 -79 13 -137
q9 -67 9 -90q0 -2 -1 -4v-3q-7 -31 -30 -31q-12 0 -21 11t-9 30q0 25 -5 42q-3 9 -10 90.5t-8 86.5q-12 67 -14 167q0 8 -0.5 18.5t-0.5 13.5q0 25 12 34z" />
    <glyph glyph-name="uni2119" unicode="&#x2119;" horiz-adv-x="457" 
d="M231 530q8 16 8 43q0 48 -18 66q-2 2 -5 2q-8 0 -8 -41q0 -4 0.5 -14t0.5 -16q1 -54 10 -54q4 0 12 14zM312 639q-13 10 -17 10q-3 0 -3 -4q0 -2 2 -12q3 -14 5 -59t3 -46q3 -3 22 18q18 20 18 42q0 30 -30 51zM148 581v19q0 46 -1.5 58t-8.5 12q-4 0 -16 -5
q-8 -4 -10 -13t-2 -50q0 -80 6 -182l6 -123l15 1l16 2l-2 96q-3 159 -3 185zM143 731q15 6 51 6q63 0 99 -14q27 -11 57.5 -38t43.5 -52q12 -24 12 -51q0 -28 -12 -46q-47 -78 -143 -127l-38 -19v-53q0 -7 -0.5 -21t-0.5 -19q0 -8 0.5 -16t0.5 -10q0 -11 -8 -17t-30 -14
q-32 -10 -53 -10t-32 8q-19 14 -25 37t-10 98q-5 85 -5 206v36v53t7.5 26.5t13 13t28.5 7.5q32 10 44 16z" />
    <glyph glyph-name="uni211a" unicode="&#x211a;" horiz-adv-x="565" 
d="M348 128q1 1 1 2q0 7 -9 17.5t-17 10.5t-8 -6q0 -5 12.5 -15t18.5 -10zM194 615q0 8 -4 8t-16 -15q-58 -72 -58 -181q0 -31 8 -63q6 -23 19 -47.5t19 -24.5q3 0 4 47.5t4.5 116t12.5 106.5q11 44 11 53zM422 616q-18 27 -25 27q-1 0 -1 -2q0 -1 6 -35q16 -92 16 -147
q0 -57 -17 -102q-32 -91 -32 -104q0 -5 3 -5q5 0 20 15q61 63 61 213q0 90 -31 140zM328 663q-3 8 -8 10.5t-20 2.5q-20 0 -27 -7q-6 -7 -36 -141q-10 -46 -10 -148q0 -76 2 -94.5t11 -37.5q11 -24 28 -29q10 -2 14 -2q15 0 15 10q0 22 48 148q14 38 14 63q0 19 -1 33
q-2 40 -12.5 107.5t-17.5 84.5zM230 754q12 8 32 8q8 0 59 -8q34 -4 76.5 -33t65.5 -64q49 -73 49 -200q0 -31 -2 -46q-7 -72 -25 -114.5t-56 -80.5q-33 -33 -33 -38t27.5 -20.5t36.5 -15.5q11 0 20 -9.5t9 -20.5q0 -20 -34 -39.5t-70 -19.5q-43 0 -107 45q-53 37 -53 61
q0 8 -30 25q-51 29 -89 80t-48 104q-4 21 -4 51q0 97 39 173q11 22 11 36q0 7 -1 11t-1 11q0 13 24 38q26 28 56 42z" />
    <glyph glyph-name="uni211d" unicode="&#x211d;" horiz-adv-x="539" 
d="M317 372q-14 13 -26 13q-4 0 -4 -3q0 -2 1 -3q13 -30 31.5 -77.5t18.5 -51.5q0 -8 7.5 -14t19.5 -6q14 0 14 8t-10 38q-24 72 -52 96zM259 624q-29 15 -31 15q-3 0 -6 -5q-1 -2 -1 -18q0 -27 2.5 -61.5t5.5 -34.5q12 0 34.5 30t22.5 46q0 12 -27 28zM159 619
q-2 43 -14 45h-4q-10 0 -12.5 -19.5t-2.5 -100.5q0 -103 -5 -143t-7 -90v-20q0 -23 6 -29t27 -6h19l4 66q1 12 1 40q0 47 -6 146.5t-6 110.5zM328 678q-16 8 -29 8q-7 0 -7 -3t22 -23q33 -28 33 -63q0 -23 -15 -53q-10 -20 -34.5 -45.5t-43.5 -35.5q-20 -10 -20 -18
q0 -3 4 -3h1q17 1 43.5 11t35.5 19q20 19 43.5 54t23.5 46q0 17 -22 58t-35 48zM171 733q34 13 107 13q56 0 75 -10q44 -22 86 -125q9 -19 9 -38q0 -40 -55 -109l-35 -43l19 -22q31 -38 57 -124q15 -50 25 -51q12 -2 19 -16q7 -13 1 -27l-7 -15q-27 1 -80.5 3t-80.5 3
l-12 14q-13 15 -13 21q0 14 -22 71t-28 57q-4 0 -8 -62q-3 -43 -5.5 -53.5t-11.5 -18.5q-13 -12 -35 -12q-12 0 -51 7q-62 14 -71 33q-2 2 -2 25q0 31 2 51q2 24 9 221q4 109 6.5 134.5t9.5 38.5q10 17 20.5 22.5t32.5 5.5q21 0 39 6z" />
    <glyph glyph-name="trademark" unicode="&#x2122;" horiz-adv-x="612" 
d="M140 635q9 6 47 6q59 0 79 -10q18 -9 18 -27q0 -10 -6 -20q-7 -11 -19 -11q-1 0 -23 2l-33 3v-61q0 -66 8 -90q5 -20 5 -31q0 -20 -14 -27q-7 -4 -15 -4q-20 0 -32 29q-9 22 -13 99l-4 76l-33 3q-33 2 -43 16q-10 13 -4 27q10 21 36 21q8 0 17 -3q19 -5 29 2zM314 630
q14 9 25 9q21 0 59 -37l20 -20l23 21q21 21 38 21q13 0 29 -14q29 -28 37 -120q5 -58 11 -98q3 -23 3 -31q0 -11 -9 -20q-11 -13 -23 -13q-16 0 -23.5 15.5t-11.5 53.5q-13 139 -21 139q-4 0 -4 -33q0 -55 -30 -55q-26 0 -44 47q-10 26 -19 37q-4 6 -6 6q-3 0 -3 -24v-27
v-27q0 -84 -20 -104q-10 -10 -22 -10q-9 0 -19 8q-3 5 -5 135l-1 131z" />
    <glyph glyph-name="uni2124" unicode="&#x2124;" horiz-adv-x="529" 
d="M373 627q0 7 -11 7q-14 0 -20 -8q-2 -2 -15 -23q-1 -2 -8.5 -14t-17 -27.5t-18.5 -29.5q-136 -212 -136 -229q0 -6 6 -6q1 0 9 2q12 2 37 53q23 49 39 72q17 26 125 184q10 12 10 19zM136 702q22 2 54 2q86 0 187 -7q55 -3 78 -9.5t23 -21.5q0 -17 -37 -60
q-41 -50 -72 -96q-11 -16 -34.5 -51.5t-30.5 -46.5q-20 -29 -40 -67.5t-20 -46.5t113 -8q31 0 33 2q4 4 8 69q1 13 11 24t21 11q10 0 21 -11q7 -7 8.5 -19.5t1.5 -59.5q0 -69 -7 -75q-4 -4 -49 -4q-12 0 -110 2q-94 3 -160 3h-25h-9q-45 0 -45 30q0 9 32.5 71t56.5 97
q90 135 115 185q9 21 7 24q-3 5 -52 5q-45 0 -56 -4q-8 -4 -11 -10t-5 -25q-3 -29 -8 -37t-20 -10q-2 0 -4.5 -0.5t-3.5 -0.5q-14 0 -19 9.5t-5 36.5q0 56 10.5 75.5t42.5 23.5z" />
    <glyph glyph-name="uni2150" unicode="&#x2150;" horiz-adv-x="571" 
d="M378 752q6 7 20 7q20 0 29 -13q7 -10 7 -23q0 -34 -84 -135q-92 -110 -156 -243q-50 -104 -65.5 -132.5t-25.5 -35.5t-15 -7q-6 0 -14 4q-16 7 -16 19q0 15 35 87q68 142 100 196t95 133q55 69 66.5 86t14.5 32q4 18 9 25zM57 697q10 16 29 16q18 0 26 -15q7 -10 7 -58
q0 -38 -1 -65q-2 -95 -8 -116.5t-30 -21.5q-17 0 -23 8q-6 7 -6 124q0 116 6 128zM359 521q27 3 51 3q82 0 101 -31q6 -9 6 -16t-7 -25q-29 -81 -87 -169q-38 -59 -41 -66q-7 -15 -21 -20t-27 7q-12 12 -12 23q0 18 49 91q25 37 48 82t23 57q0 5 -18 5q-6 0 -38 -2
q-12 -1 -30 -1q-23 0 -30 6t-7 25q0 16 8 22t32 9z" />
    <glyph glyph-name="uni2151" unicode="&#x2151;" horiz-adv-x="542" 
d="M374 471q-18 8 -26 8q-9 0 -20 -12.5t-14 -25.5q-1 -3 -1 -8q0 -9 16 -25t26 -16q6 0 9 1q18 4 26 12q9 9 9 23q0 30 -25 43zM344 790q4 2 12 2q13 0 23 -8.5t10 -20.5q0 -7 -10 -31q-3 -6 -17 -41q-8 -20 -47 -98q-40 -80 -40 -85q0 -4 14 8q28 25 60 25q20 0 51 -14.5
t45 -31.5q27 -30 34.5 -45t7.5 -35q0 -31 -17 -58t-70 -79q-42 -41 -56.5 -52t-25.5 -11q-18 0 -26 12q-5 8 -5 15q0 15 38 49q33 29 33 32q0 4 -21 8q-23 3 -45 24q-38 34 -43 82l-3 29l-29 -49q-30 -51 -62 -111q-33 -62 -41 -67q-4 -3 -12 -3q-24 0 -30 19q-2 6 -2 9
q0 13 30 70q43 82 88 158q76 130 118 229q27 65 38 69zM60 696q8 11 27 10q22 -2 27 -20.5t5 -92.5t-5 -92.5t-26 -20.5q-19 -2 -24 5q-4 6 -8 103q-2 64 -2 70q0 29 6 38z" />
    <glyph glyph-name="uni2152" unicode="&#x2152;" horiz-adv-x="700" 
d="M380 773q16 17 34 17q17 0 25 -14q6 -9 6 -13t-6 -16q-9 -17 -29 -40q-17 -20 -78 -125q-53 -92 -61 -107q-6 -8 -124 -194q-24 -36 -31 -43.5t-19 -7.5q-17 0 -23 6t-6 15q0 21 61 115q90 138 156 258q66 119 95 149zM63 719q13 8 20 8q9 0 20 -11q8 -8 9.5 -28
t2.5 -105v-43q0 -78 -8 -86t-20 -8q-16 0 -26 12q-6 8 -7.5 29.5t-1.5 103.5q0 89 1.5 105.5t9.5 22.5zM346 521q8 9 21 9q10 0 20 -7q6 -5 7.5 -19t3.5 -78v-26q0 -130 -20 -179q-8 -20 -27 -20q-11 0 -17 5q-13 9 -13 30q0 15 8 49q8 28 8 128q0 99 9 108zM569 413
q-15 29 -24 29q-5 0 -15 -8q-22 -19 -26 -98q-1 -13 -1 -31q0 -26 8 -41q13 -27 29 -27q3 0 13 4q17 9 23.5 28t6.5 62q-1 54 -14 82zM504 522q11 8 21 8q11 0 29 -9q42 -22 67 -73.5t25 -117.5q0 -21 -3 -42q-9 -64 -43 -91q-28 -22 -59 -22q-56 0 -85 58q-15 33 -15 89
q0 95 33 144q18 27 18 38q0 10 12 18z" />
    <glyph glyph-name="onethird" unicode="&#x2153;" horiz-adv-x="594" 
d="M401 586q44 48 62 48q10 0 19 -13q6 -9 6 -17q0 -19 -45 -65q-63 -68 -86 -104q-7 -11 -6 -12q0 -1 5 3q9 6 31 6q31 0 70 -10t54 -23q10 -7 10 -23q0 -25 -29 -66q-22 -33 -22 -35q0 -1 22 -13q47 -24 47 -61q0 -16 -3.5 -23t-18.5 -20q-28 -24 -63 -39.5t-58 -15.5
q-16 0 -21 8t-5 22q0 18 7 23q6 6 22 10q14 3 38.5 15t27.5 17q1 1 1 3q0 6 -50 19q-62 15 -62 40q0 20 40 39q17 9 36 32q15 20 15 25q0 11 -46 12q-56 1 -61 28l-1 1q-5 0 -49 -72.5t-94.5 -152t-69.5 -93.5q-4 -4 -13 -4q-15 0 -22 9q-11 13 -11 21q0 7 10 22
q53 75 114 176q82 136 113 180t86 103zM123 606q33 17 51 17q15 0 25 -13t10 -40q0 -5 -2 -63q-6 -169 -16 -177q-9 -9 -21 -9q-11 0 -21 10q-12 12 -12 29q0 3 2 35q7 97 7 128q0 19 -3 20q-4 3 -26 -15q-18 -17 -34 -17q-10 0 -20 8q-8 7 -8 18q0 33 68 69z" />
    <glyph glyph-name="twothirds" unicode="&#x2154;" horiz-adv-x="661" 
d="M548 684q8 12 25 12q13 0 23 -8.5t10 -22.5q0 -8 -20.5 -28.5t-41.5 -33.5q-59 -35 -102 -102q-27 -43 -27 -47t56 -8q60 -4 73 -9q50 -18 50 -70q0 -15 -3 -31q-6 -28 -28 -50q-17 -17 -17 -20q0 -4 4 -5q49 -27 49 -70q0 -9 -3 -18q-6 -15 -35.5 -40.5t-56.5 -39.5
t-58 -14q-25 0 -41.5 9.5t-16.5 24.5q0 10 8 21t43 11q24 0 34 2.5t25 13.5q23 16 31 26l4 6q0 5 -54 31q-22 12 -30.5 20t-8.5 19q0 7 3 16q2 8 23 22.5t38 18.5q29 9 29 39q0 11 -4.5 15.5t-18.5 6.5q-22 4 -61 4q-42 1 -53 11l-11 10l-53 -94q-52 -90 -73 -130
q-48 -91 -78 -91q-7 0 -13 3q-16 7 -16 25q0 13 8 22q30 42 72 121l22 40l-16 -6q-8 -3 -20 -3q-8 0 -11 1q-2 1 -11 1q-25 0 -61 -6q-35 -5 -48 -5q-27 0 -31 20q-1 3 -1 9q0 12 9.5 23t35.5 33q56 46 76.5 75t20.5 63q0 30 -5.5 41t-22.5 11q-9 0 -34 -5q-19 -4 -36 -4
q-38 0 -38 30q2 28 29 28q14 0 42 8q22 7 40 7q21 0 40 -11q25 -14 35.5 -35t10.5 -59v-11q-2 -42 -11.5 -66.5t-37.5 -55.5l-23 -25h20q45 0 54 -25q3 -8 5 -8q4 0 27 40q30 52 45 79q90 162 172 208q29 17 39 30z" />
    <glyph glyph-name="uni2155" unicode="&#x2155;" horiz-adv-x="549" 
d="M344 750l46 50h87l-87 -94q-88 -96 -109 -125q-41 -61 -105 -198q-41 -87 -60 -117t-34 -30q-7 0 -14 4q-14 8 -14 21q0 15 18 48q26 49 45 95q52 119 94 183t133 163zM72 748q11 11 23 11q19 0 24 -19.5t8 -103.5q2 -60 2 -69q0 -29 -4 -38t-16 -9q-1 0 -5 0.5t-6 0.5
q-21 2 -27.5 24t-7.5 100q-1 23 -1 54q0 39 10 49zM327 521q17 7 26 7q7 0 10 -1q8 -2 56.5 -2t58.5 -4q18 -7 18 -26q0 -10 -6 -19t-14.5 -10.5t-46.5 -3.5q-53 -2 -53 -7q0 -6 36 -11q40 -8 59 -29.5t24 -66.5q1 -8 1 -21q0 -32 -18 -49.5t-66 -31.5q-39 -13 -88 -13
q-38 0 -49 9q-11 10 -11 23q0 12 10 21t25 9q6 0 9 -1q1 0 4 -0.5t5 -0.5q23 0 62 8.5t48 16.5q10 8 6 27q-4 25 -14 31.5t-46 9.5q-44 3 -55 17q-11 12 -11 44v17l1 48z" />
    <glyph glyph-name="uni2156" unicode="&#x2156;" horiz-adv-x="647" 
d="M527 761q10 7 22 7q14 0 24 -9t10 -23q0 -9 -10 -24t-52 -70q-31 -39 -44.5 -60t-27.5 -47.5t-31 -53.5q-12 -19 -86 -142q-57 -94 -63 -102q-8 -11 -23 -11q-12 0 -21.5 8t-9.5 20q0 9 51.5 97.5t111.5 181.5q27 42 38 65q8 17 55 82q44 59 44 66t12 15zM114 734
q15 8 42 8q30 0 51 -10q64 -30 64 -97q0 -13 -3 -27q-4 -17 -25 -56.5t-29 -44.5q-5 -3 -5 -8q0 -10 17 -10q15 0 25.5 -9t10.5 -21q0 -10 -7 -18q-8 -11 -55.5 -20t-89.5 -9q-35 0 -43 7q-9 6 -9 22q0 14 7 26t18 12q7 0 33 15q29 17 61.5 67t32.5 76q0 14 -13.5 27
t-31.5 15q-5 1 -13 1q-12 0 -32 -19q-22 -21 -37 -21q-9 0 -19 8q-10 9 -10 20q0 16 22 37q24 22 38 29zM488 477q24 7 55 7q34 0 42 -8t8 -21q0 -15 -9 -24q-8 -9 -35 -9q-24 0 -31.5 -6.5t-7.5 -27.5q0 -16 3 -19.5t17 -8.5q42 -13 42 -63q0 -30 -15 -51q-41 -55 -98 -55
q-30 0 -44 20q-10 14 -4 27q8 20 30 20q4 0 10 -2q2 -1 7 -1q15 0 33.5 13.5t18.5 26.5q0 3 -22 12q-28 11 -35 23t-7 50v17q2 50 8 61.5t34 18.5z" />
    <glyph glyph-name="uni2157" unicode="&#x2157;" horiz-adv-x="625" 
d="M447 765q6 4 22 4q17 0 23 -13q3 -6 3 -12q0 -11 -41 -71q-73 -104 -111 -168q-47 -81 -100 -220q-20 -51 -34 -70q-12 -13 -27 -8q-20 8 -20 24q0 21 33 101q36 87 41 105q2 9 0.5 10t-11.5 -6q-11 -8 -57.5 -19t-66.5 -11q-35 0 -35 31q0 16 13 23.5t49 12.5
q45 8 50 10q7 3 7 9q0 8 -15 25q-13 16 -24 16q-1 0 -3 -0.5t-4 -0.5h-6q-13 0 -21.5 8.5t-8.5 20.5q0 9 4 16q6 9 42 24q35 14 45 24q6 7 5 9t-11 6q-9 3 -37 8q-5 1 -14 1q-11 0 -24 -9q-14 -10 -28 -10q-12 0 -20.5 8t-8.5 22q0 23 35 41q10 5 52 5q43 0 61 -5
q21 -6 40 -25t19 -39q0 -32 -30 -61l-15 -15l15 -22q15 -20 19 -43l4 -20l29 50q23 39 89 134t73 100zM504 541q17 7 33 7q34 0 34 -31q0 -13 -11.5 -23t-26.5 -10q-13 0 -22 -7q-6 -5 -40 -17q-29 -8 -29 -13t20 -12q36 -13 48 -43q5 -13 5 -19q0 -7 -6 -25
q-13 -39 -48.5 -69.5t-82.5 -41.5q-15 -4 -30 -4q-43 0 -43 33q0 14 8.5 20t28.5 8q23 1 53 16t42 31q13 18 13 29q0 5 -4 5q-1 0 -43 8q-32 7 -42 15t-10 28q0 28 26 54q3 4 11.5 13t11.5 12q9 10 28 10q22 0 35 8q17 9 41 18z" />
    <glyph glyph-name="uni2158" unicode="&#x2158;" horiz-adv-x="614" 
d="M484 778q10 11 24 11q11 0 18.5 -7.5t7.5 -19.5q0 -18 -49 -86q-87 -123 -163 -245q-44 -70 -106 -145t-79 -80q-1 0 -2.5 -0.5t-2.5 -0.5q-11 0 -19.5 9.5t-8.5 21.5q0 15 46 68q66 76 154 215q41 65 102.5 153t77.5 106zM155 564q0 1 0.5 2.5t0.5 2.5q0 10 -7 10
q-4 0 -10 -7q-4 -6 -6 -10.5t-1.5 -7t3 -3t7.5 0.5q11 2 13 12zM169 723q5 4 14 4q14 0 27.5 -11.5t13.5 -24.5q0 -7 -6 -13q-4 -4 -4 -38v-22q1 -38 3.5 -45.5t10.5 -9.5q10 -2 18 -12.5t8 -21.5q0 -1 -0.5 -3t-0.5 -3q-3 -13 -23 -21l-18 -8l3 -33q1 -6 1 -17
q0 -38 -28 -38q-30 0 -33 49l-1 30l-41 1q-28 1 -36 3t-15 10q-8 10 -8 23q0 19 18 55q12 24 51 82.5t46 63.5zM488 534q20 6 43 6q20 1 25 -12q4 -8 4 -17q0 -25 -74 -43l-30 -7q0 -11 -1 -33t-1 -33l23 -13q26 -14 41 -29q16 -15 16 -39q0 -57 -61 -97q-24 -15 -56 -15
q-23 0 -30.5 2t-15.5 12q-12 15 -12 24t12 21q9 9 15 9q7 0 16 -4q9 -3 16 -3q6 0 18 5q12 7 23 19t11 19v1q-1 1 -1 2q-4 9 -26 19.5t-38 10.5q-22 0 -30 13q-6 9 -6 14q0 3 8 19q13 24 13 53q0 16 -5 29q-4 8 -4 17q0 23 48 34q48 13 59 16z" />
    <glyph glyph-name="uni2159" unicode="&#x2159;" horiz-adv-x="582" 
d="M458 753q20 16 43 16q12 0 18 -6t6 -24q0 -11 -4 -16t-18 -14q-24 -16 -113 -105q-63 -63 -85.5 -89.5t-57.5 -80.5q-88 -136 -115 -188q-23 -46 -28 -51q-6 -6 -18 -6q-13 0 -23 8q-9 9 -9 20q0 21 49 104q75 126 132 203q26 35 110 121.5t113 107.5zM63 749q12 9 22 9
t19 -10q8 -10 9 -84q0 -44 5 -152q3 -42 3 -59q0 -21 -10 -31t-23 -10q-12 0 -20 9q-17 19 -17 235q0 61 1.5 73.5t10.5 19.5zM407 346q-9 9 -27 9q-19 0 -32 -10q-12 -9 -12 -32v-8q0 -30 11 -52q9 -17 21.5 -30t20.5 -13h1l2 1q10 4 17 33t7 59q0 35 -9 43zM390 563
q17 9 25 9q7 0 18 -6q29 -14 29 -42q0 -12 -7.5 -20.5t-21.5 -8.5q-5 0 -8 1q-4 1 -10 1q-9 0 -23 -22q-12 -21 -21 -39q-4 -10 -4 -11q0 -5 39 -13q75 -15 75 -108q0 -30 -9 -66q-11 -44 -34 -69t-51 -25q-7 0 -11 1q-17 3 -45.5 30t-41.5 52q-11 21 -11 77q0 62 13 100
q20 60 47 103.5t52 55.5z" />
    <glyph glyph-name="uni215a" unicode="&#x215a;" horiz-adv-x="575" 
d="M415 700q25 26 36 26q8 0 18 -7q11 -8 11 -18q0 -17 -28 -51q-60 -73 -140 -215q-41 -75 -78 -138q-37 -64 -41 -75q-4 -12 -17.5 -25.5t-22.5 -13.5q-12 0 -21 9q-10 8 -10 16q0 14 22 55.5t101 178.5q109 191 170 258zM137 718q65 3 85 3q24 0 34 -7q11 -8 11 -24
q0 -11 -8 -21q-8 -9 -63 -9q-65 0 -65 -6q0 -5 47 -12q38 -6 58 -45q10 -19 10 -53q0 -26 -7 -43q-15 -35 -56.5 -62.5t-78.5 -27.5q-23 0 -31 6t-8 23q0 16 8.5 22t38.5 13q65 15 71 66q1 5 1 14q0 18 -11.5 23.5t-47.5 7.5q-48 2 -59 13q-12 13 -12 33q0 17 7 43t14 33
t62 10zM439 344q-19 10 -27 10q-7 0 -7 -11q0 -8 1 -13q2 -16 12.5 -27t20.5 -11q9 0 15 10q5 9 5 18q0 14 -20 24zM436 514q10 5 13 5q5 0 29 -7q29 -8 34 -21q2 -6 2 -10q0 -14 -11.5 -23t-27.5 -9q-7 0 -11 1q-8 2 -12.5 -0.5t-11.5 -11.5q-11 -16 -11 -20q0 -6 15 -9
q20 -4 41.5 -18.5t28.5 -29.5q7 -14 7 -37q0 -38 -18 -61q-24 -32 -61 -32q-20 0 -41 9q-40 17 -53 65q-8 27 -8 46t10 51q12 35 36.5 67t49.5 45z" />
    <glyph glyph-name="oneeighth" unicode="&#x215b;" horiz-adv-x="607" 
d="M404 636q11 8 22 8q12 0 20 -8q9 -8 9 -20q0 -17 -23 -51q-104 -146 -194 -331q-41 -83 -65 -118t-40 -35q-3 0 -5 1q-25 7 -25 29q0 12 28 52q29 42 29 48q0 5 47.5 99t67.5 129q36 59 70 109q48 74 48 76q0 5 11 12zM133 612q31 27 44 27q9 0 19 -9l13 -10v-146
q-1 -104 -2 -126t-8 -29q-9 -10 -25 -10q-13 0 -22 9q-7 8 -7 39q0 4 2 78l4 109l-13 -10q-33 -24 -56 -24q-11 0 -18.5 9t-7.5 22q0 16 22 29q31 21 55 42zM478 185q12 30 12 48q0 11 -6 17q-6 4 -7 4q-5 0 -22 -33q-10 -19 -10 -33q0 -17 14 -19q11 -2 19 16zM467 349
l14 21h-20q-13 0 -17.5 -2t-6.5 -10l-6 -21q-2 -5 0.5 -7t9.5 -2q12 0 26 21zM416 427q18 10 37 10q23 0 50 -12q45 -19 45 -49q0 -17 -15 -41l-15 -24l18 -26q17 -24 17 -53t-10 -54q-15 -38 -34 -54.5t-48 -16.5h-11q-47 4 -64 53q-4 9 -4 26q0 34 15 61q5 8 5 11
q0 5 -17 21l-20 18l3 36q5 66 48 94z" />
    <glyph glyph-name="threeeighths" unicode="&#x215c;" horiz-adv-x="659" 
d="M513 656q16 20 30 20q30 0 30 -26q0 -14 -11 -31q-14 -20 -45 -75q-68 -118 -157 -238q-60 -80 -108 -152q-22 -34 -32 -39q-2 -1 -7 -1q-21 0 -32 18q-2 4 -2 8q0 27 108 170q96 128 171 257q38 66 55 89zM104 663q21 7 59 7h8q28 0 60 -16q58 -30 58 -62q0 -26 -42 -88
q-20 -31 -20 -33q0 -3 20 -8q18 -4 32.5 -20t14.5 -30t-13 -36t-29 -34q-27 -20 -83 -42.5t-80 -23.5q-8 0 -20.5 12t-12.5 21q0 8 15 19t32 15q64 16 102 43l23 17l-18 3q-12 4 -51 4q-36 1 -48 11q-13 10 -13 26q0 13 9.5 22t24.5 9q17 0 33 19q16 18 36.5 49.5t20.5 37.5
q0 9 -19 14.5t-43 5.5q-30 0 -43 -9q-13 -8 -20 -8q-10 0 -23 13q-13 12 -13 25q0 23 43 37zM531 205q-8 4 -11 4q-12 0 -25 -22q-14 -22 -14 -28q0 -7 12 -7q10 0 25 19t15 30q0 2 -2 4zM522 355q-8 0 -20 -14q-11 -14 -11 -30q0 -8 5 -11h1q5 0 19 20.5t14 28.5q0 6 -8 6z
M484 432q18 5 41 5q37 0 55 -9q24 -15 24 -42q0 -30 -25 -79q-17 -35 -17 -41q0 -4 5 -7q38 -20 38 -52q0 -23 -19 -48q-15 -20 -30 -43q-20 -34 -62 -34q-13 0 -21 1q-42 4 -53 16q-11 11 -11 33q0 32 30 82l18 27l-15 28q-13 26 -13 47q0 22 12 44q9 16 9 33q0 28 34 39z
" />
    <glyph glyph-name="fiveeighths" unicode="&#x215d;" horiz-adv-x="630" 
d="M504 662q16 13 34 13q13 0 21 -8t8 -17q0 -16 -43 -53q-55 -49 -89.5 -93t-95.5 -145q-13 -20 -31 -49t-24 -39t-19.5 -33.5t-27.5 -51.5t-37 -75q-11 -21 -30 -21q-12 0 -22 10q-7 7 -7 15q0 12 22 63q12 29 32.5 65.5t36.5 62.5t44.5 70.5t41.5 64.5q86 140 186 221z
M85 641q8 8 22 8t20 -8q6 -6 23 -6q4 0 44 2q13 1 34 1q34 0 46 -7.5t13 -28.5q0 -27 -42 -27q-3 0 -9 0.5t-10 0.5q-3 0 -9 0.5t-9 0.5q-18 0 -33 -2.5t-23 -5.5t-8 -6q0 -6 28 -9q68 -7 98 -40q12 -13 14.5 -21t2.5 -31q0 -42 -25.5 -84t-59.5 -55q-8 -4 -71 -8
q-16 -1 -36 -1q-21 0 -30 9q-11 11 -11 23q0 16 14.5 22.5t59.5 9.5q43 3 51.5 5t19.5 14q14 14 24 42q6 17 6 22q0 7 -9 14q-14 14 -58 14q-27 0 -38 -7q-13 -8 -24 -8q-14 0 -23 13q-7 10 -7 19q0 10 4 26q5 25 5 56v11v10q0 26 6 32zM500 232q-13 8 -18 8q-4 0 -14.5 -19
t-12.5 -31l-4 -18l18 4q25 5 34.5 12t10.5 20q1 10 -1.5 14.5t-12.5 9.5zM510 345q0 14 -2 17t-9 2q-35 -1 -35 -12q0 -8 12 -21q13 -16 19 -16q4 0 7 3q8 6 8 27zM456 424q22 7 36 7q12 0 38 -6q28 -7 35 -18.5t7 -51.5q0 -43 -11 -61l-11 -18l12 -13q15 -15 15 -48
q0 -25 -11 -47q-12 -21 -26 -31t-42 -18q-32 -8 -48 -8q-24 0 -42 19q-12 13 -14.5 20.5t-2.5 28.5q0 42 32 88q7 10 7 15q0 4 -5 14q-7 14 -26 31q-19 16 -19 34t20 35t56 28z" />
    <glyph glyph-name="seveneighths" unicode="&#x215e;" horiz-adv-x="606" 
d="M430 651q39 40 52 40q9 0 16 -9q10 -12 10 -24q0 -1 -0.5 -3.5t-0.5 -4.5q-2 -10 -30 -39q-95 -103 -207 -327q-85 -168 -111 -176q-6 -2 -10 -2q-17 0 -26 18q-3 7 -3 13q0 17 26 48q12 13 49 89q41 85 99 189q24 41 76 110q22 29 22 34q0 4 38 44zM63 626q6 6 75 6
q132 0 147 -12q8 -6 8 -15q0 -11 -23 -69q-33 -80 -79 -149t-66 -69q-12 0 -22.5 9t-10.5 20q0 14 20 37q25 30 57.5 87t38.5 81l4 14l-49 3q-85 5 -98 18q-9 7 -9 21q0 11 7 18zM465 220q-8 5 -14 5q-12 0 -17 -14q-5 -13 -4.5 -15t9.5 -4t22 11q12 12 4 17zM491 345
q0 9 -4 9q-30 -5 -35 -8.5t-9 -18.5q-5 -20 -2 -23h2q8 0 28 17t20 24zM465 417q24 3 39 3q23 0 31.5 -10.5t13.5 -42.5q3 -18 3 -30q0 -32 -28 -53l-18 -14l16 -17q16 -19 16 -37q0 -20 -24 -48q-37 -41 -65 -41q-16 0 -37 9q-46 20 -46 59q0 13 6 28q5 14 7 74q1 60 12 78
q23 36 74 42z" />
    <glyph glyph-name="uni2206" unicode="&#x2206;" horiz-adv-x="508" 
d="M281 404q-1 1 -10 25.5t-18.5 44.5t-13.5 20t-9 -21q-2 -10 -46.5 -138t-44.5 -143q0 -5 43 -5q38 0 67 1q113 2 115 4q1 1 -31.5 85t-51.5 127zM212 592q13 11 23 11q12 0 27 -16q16 -17 48 -90q2 -4 8 -18.5t9 -20.5q12 -28 61 -151.5t49 -126.5q0 -2 8 -10q7 -7 7 -19
t-7 -22q-5 -8 -22 -8q-16 0 -28 1q-4 0 -26.5 0.5t-39.5 0.5q-14 0 -47 -0.5t-49 -0.5q-120 -1 -128 -9q-9 -7 -18 -7q-19 0 -27 17q-4 10 -4 15q0 9 13 47q70 203 78 232q45 155 65 175z" />
    <glyph glyph-name="summation" unicode="&#x2211;" horiz-adv-x="563" 
d="M194 33q23 0 121 -7.5t123 -7.5q40 0 50 -6q18 -11 18 -29q0 -26 -26 -31h-4q-4 -1 -8 -1q-71 0 -195 15q-33 5 -113 5q-75 0 -87 6q-16 10 -16 29t16 25q10 4 23 28q9 17 38 54.5t47 56.5q20 21 67.5 77t47.5 59q0 4 -19 25q-20 22 -48 57q-32 40 -34 42q-15 15 -31 37
q-23 31 -49 54q-26 22 -26 39q0 12 9 22q6 8 22 10t96 5q147 5 173 5q48 0 60 -12q13 -12 13 -21q0 -8 -9 -17q-7 -7 -28 -9t-103 -4q-123 -4 -123 -7q0 -6 41.5 -57.5t85.5 -102.5l32 -37l-2 -29q-2 -29 -6 -35t-50.5 -60.5t-62.5 -71.5q-14 -15 -47.5 -57.5t-33.5 -45.5
t38 -3z" />
    <glyph glyph-name="notequal" unicode="&#x2260;" horiz-adv-x="496" 
d="M296 569q8 9 20 9q16 0 25 -14q7 -10 7 -17q0 -6 -6 -24q-9 -27 -9 -30q0 -4 41 -4q42 0 52 -10t10 -22q0 -23 -33 -30q-18 -5 -61 -5h-40l-21 -42q-18 -38 -18 -45q0 -4 47 -4q24 0 37 1q54 2 58 2q24 0 29 -8q8 -12 8 -21q0 -20 -26 -27t-118 -11l-80 -3l-25 -47
q-19 -35 -24.5 -41t-20.5 -6q-20 0 -27 15q-4 10 -4 13q0 9 13 36l16 34l-38 -4q-8 -1 -20 -1q-20 0 -27.5 6.5t-7.5 22.5q0 19 15 26.5t60 9.5q54 4 56 6q7 7 21.5 37.5t14.5 35.5q-2 3 -10 2t-18 -4q-12 -3 -38 -3q-17 0 -25 1q-28 1 -37 4t-17 12q-11 13 -11 17
q0 5 11 19q9 13 24 13q10 0 18 -1q7 -1 22 -1q40 0 97 11q15 3 20.5 9.5t16.5 34.5q16 39 23 48z" />
    <glyph glyph-name="lessequal" unicode="&#x2264;" horiz-adv-x="526" 
d="M379 571q12 6 20 6t21 -12t13 -20q0 -7 -11 -21t-16 -14t-29 -26q-49 -51 -119 -101q-24 -17 -24 -25q0 -4 9 -4q6 0 108.5 -50.5t110.5 -57.5q8 -6 8 -19q0 -16 -12 -25q-10 -8 -19 -8q-6 0 -114 52q-72 36 -106 49t-79 22q-20 4 -25 18q-2 8 -2 12q0 10 11 20t46 33
q89 59 152 120q49 47 57 51zM65 189q9 9 20 9q6 0 10 -1q87 -12 226 -16q83 -3 102 -5.5t26 -9.5q10 -12 10 -20q0 -10 -12 -23l-12 -14l-80 7q-19 1 -50 3t-69 4t-56 3q-64 3 -81.5 5t-26.5 9q-16 13 -16 28q0 12 9 21z" />
    <glyph glyph-name="greaterequal" unicode="&#x2265;" horiz-adv-x="465" 
d="M71 545q9 11 18 11t73 -36t125 -75q36 -24 76 -48q47 -29 47 -52q0 -18 -18 -27.5t-84 -27.5q-89 -26 -169 -63q-37 -17 -47 -20q-2 -1 -5 -1q-11 0 -22 10.5t-11 21.5q0 10 9.5 22t17.5 12q9 0 22 8q46 26 160 62l45 14l-15 11q-4 3 -10.5 7t-16 10t-14.5 9
q-92 57 -125 74q-36 19 -51.5 31.5t-15.5 24.5q0 9 11 22zM267 198q41 4 74 4q34 0 47 -7t13 -25q0 -28 -43 -28q-28 0 -60 -5q-36 -6 -121 -11q-43 -3 -67 -3q-29 0 -38.5 5.5t-11.5 21.5v6q0 27 43 27q25 0 67 6q41 6 97 9z" />
    <glyph glyph-name="uni1d538" unicode="&#x1d538;" horiz-adv-x="656" 
d="M349 382q0 9 -11 47.5t-16 38.5q-4 0 -15.5 -31t-11.5 -44q0 -7 5 -9.5t22 -6.5q15 -4 21 -4t6 9zM390 578q-19 56 -24 56q-4 0 -15 -40q-7 -26 -7 -29q0 -7 9 -16q22 -23 47.5 -114.5t30.5 -165.5l3 -47l30 -1q4 0 9 -0.5t7 -0.5q13 0 13 13q0 7 -10 62q-14 77 -51 171
q-36 95 -42 112zM344 705q17 6 29 6q15 0 29 -12q14 -13 23 -32t27 -77q15 -47 41 -114q43 -102 58 -211q4 -32 7.5 -39t14.5 -9q14 -4 23 -16q9 -13 1 -27q-11 -20 -54 -20q-14 0 -21 1q-7 0 -40.5 3t-52.5 5q-68 6 -76 14q-9 9 -9 22q0 16 12 25q13 11 13 39q0 26 -7 35
t-32 14q-42 9 -53 9t-16 -8q-6 -10 -18.5 -46.5t-12.5 -41.5t32 -5q56 0 56 -31q0 -29 -33 -29q-10 0 -15 1q-1 0 -5.5 0.5t-7.5 0.5q-26 0 -73 -7q-58 -8 -82 -8q-48 0 -48 28v6q1 15 15.5 21.5t51.5 9.5q29 2 35 5t8 14q6 23 47 129q47 120 73 220q17 68 29.5 93.5
t30.5 31.5z" />
    <glyph glyph-name="uni1d540" unicode="&#x1d540;" horiz-adv-x="373" 
d="M199 656q-2 4 -14 4q-13 0 -18 -7t-5 -30q0 -18 1 -29q2 -23 6 -189l3 -139l14 1q10 1 12 7.5t5 41.5q2 30 2 102q0 228 -6 238zM213 722q32 2 43 2q65 0 65 -33q0 -14 -11 -22.5t-28 -8.5h-17q1 -64 1 -191.5t1 -191.5h18q16 0 26 -8.5t10 -20.5q0 -24 -33 -33
q-20 -5 -78 -10.5t-94 -5.5q-26 0 -33 2t-13 11q-5 7 -5 17q0 25 23 30q10 2 13.5 7t5.5 20q2 14 2 52q0 106 -8 256l-4 56l-15 3q-12 2 -21 12.5t-9 21.5q0 8 13 19t62 12q74 3 86 4z" />
    <glyph glyph-name="uni1d54e" unicode="&#x1d54e;" horiz-adv-x="964" 
d="M490 641q-3 8 -9 8q-35 -5 -35 -13q0 -7 26 -59q18 -33 37.5 -79t24.5 -58q13 -27 40 -101q24 -69 31 -71q2 -1 5 4.5t4 14.5q1 4 1 11q0 15 -11 38q-12 28 -16 47q-5 27 -63 171q-8 19 -16 39t-13 34zM205 656q-5 4 -9 4q-9 0 -9 -21q0 -27 15 -83q30 -104 65 -224
q13 -46 13 -48t4 -2q5 0 17 26l12 27l-12 9q-13 10 -26 63q-43 163 -44 168q-5 24 -13.5 51t-12.5 30zM664 701v7q0 24 24 24q14 0 38 -8q17 -7 50 -7q9 0 55 2l81 4v-63h-83v-16q-1 -23 -45 -103q-45 -86 -90 -203q-22 -58 -24 -63q-5 -13 -5 -24q0 -9 -12 -41.5t-20 -45.5
q-10 -16 -24 -16q-9 0 -21 10q-13 11 -13 21q0 9 -20 47q-23 43 -50 122q-44 127 -53 127q-2 0 -4 -2q-5 -5 -35 -69q-68 -148 -93 -191.5t-42 -43.5h-4q-10 2 -25 21.5t-18 36.5q-1 4 -26 96q-69 246 -78 273q-8 30 -8 37q0 8 -4.5 10t-23.5 2q-22 0 -30.5 6t-8.5 23
q0 14 12 20.5t56 15.5q44 10 80 10q24 0 40 -1q51 -3 63.5 -8t12.5 -24q0 -27 -21 -27q-15 0 -15 -17q0 -13 11 -63q18 -75 23 -88q7 -20 13 -43q4 -14 7 -18t12 -4t13.5 4.5t10.5 20.5q1 2 12 27t18 39l20 43l-16 27q-9 16 -23 44q-7 16 -27 26q-22 13 -22 29q0 12 8 20
q6 7 23 7q21 0 48 -8q9 -3 20 -3t40 6q37 8 71 8q28 0 36 -13q9 -14 3 -26q-5 -12 -16 -16q-10 -3 -10 -10q0 -14 49 -132q26 -66 33 -87q9 -27 13 -27q5 0 39 76q35 78 53 108q29 52 29 61q0 3 -1 4q-3 5 -30 5q-28 0 -51 12q-15 7 -19 12t-6 17z" />
  </font>
</defs>
</svg>
